<svg t="1673591783120" class="icon" viewBox="0 0 1024 1024" version="1.1" xmlns="http://www.w3.org/2000/svg" p-id="7910" width="200" height="200"><path d="M436.11 512c103.37 0 186.06-82.69 186.06-186.06s-82.69-186.06-186.06-186.06-186.06 82.69-186.06 186.06S332.75 512 436.11 512z m0-289.42c57.88 0 103.37 45.48 103.37 103.37 0 57.88-45.48 103.37-103.37 103.37s-103.37-45.48-103.37-103.37c0.01-57.89 45.49-103.37 103.37-103.37zM436.11 553.34C231.45 553.34 64 627.77 64 718.73v82.69c0 45.48 37.21 82.69 82.69 82.69h578.84c45.48 0 82.69-37.21 82.69-82.69v-82.69c0-90.96-167.45-165.39-372.11-165.39z m289.42 248.08H146.69v-82.69c0-45.48 130.24-82.69 289.42-82.69s289.42 37.21 289.42 82.69v82.69zM877.3 284.6v-82.69h-82.69v82.69h-82.69v82.69h82.69v82.69h82.69v-82.69H960V284.6z" p-id="7911"></path></svg>