<svg t="1677125082314" class="icon" viewBox="0 0 1024 1024" version="1.1" xmlns="http://www.w3.org/2000/svg" p-id="3264" width="200" height="200"><path d="M858.89667269 91.57631517c-12.25450203-13.19715602-29.22227406-17.91042605-46.1900461-17.91042604l-597.64263717 0c-16.96777203 0-32.99289006 4.71327001-45.24739209 16.96777202-11.31184801 12.25450203-17.91042605 28.27962006-16.02511803 45.24739211l46.19004607 627.80756524c1.885308 19.79573404 12.25450203 37.70616007 30.16492808 48.07535409L483.72037994 959.76065089c9.42654002 5.65592402 20.73838803 8.48388603 31.10758207 8.48388602 10.36919402 0 21.68104205-2.82796201 31.10758206-8.48388602l252.63127251-147.9966783c16.96777203-10.36919402 28.27962006-28.27962006 30.16492804-48.07535409l46.19004611-626.86491123C875.86444471 119.85593522 870.2085207 103.83081718 858.89667269 91.57631517zM780.65639054 758.9753485c0 4.71327001-2.82796201 8.48388603-6.59857803 11.31184801L521.42654002 919.2265288c-4.71327001 2.82796201-10.36919402 2.82796201-14.13981003 0l-252.63127251-147.99667828c-3.770616-1.885308-6.59857803-6.59857803-6.598578-11.31184803l-46.19004609-627.80756525c0-5.65592402 1.885308-6.59857803 3.770616-8.48388602s4.71327001-1.885308 10.36919402-1.885308L813.64928061 121.74124322c5.65592402 0 8.48388603 0 10.36919402 1.885308s3.770616 3.770616 3.77061599 9.42654003L780.65639054 758.9753485z" p-id="3265"></path><path d="M742.00757646 186.78436935l-225.29430645 0 0 329.92890066-237.54880846 0 13.19715602 183.81753035c0.94265401 9.42654002 5.65592402 17.91042605 14.13981002 22.62369605l193.24407038 113.11848022c5.65592402 2.82796201 11.31184801 3.770616 17.91042605 3.77061602L517.65592402 516.71327001l231.89288446 0 21.68104204-297.87866459C772.17250452 201.86683339 758.9753485 186.78436935 742.00757646 186.78436935z" p-id="3266"></path></svg>