<svg t="1677124695864" class="icon" viewBox="0 0 1024 1024" version="1.1" xmlns="http://www.w3.org/2000/svg" p-id="6887" width="200" height="200"><path d="M908.52352 146.61632a64.30208 64.30208 0 0 0-48.128-16.95232c-0.90624 0.06656-11.19744 0.6656-27.3152 0.6656-26.69056 0-78.7968-1.792-128.14848-13.84448-63.744-15.54432-137.3184-87.64416-158.73536-101.88288A64.37376 64.37376 0 0 0 510.5664 3.87584c-12.3904 0-24.81152 3.57888-35.584 10.69568-2.60608 1.7408-79.62112 83.54816-154.9824 101.9136-49.3312 12.05248-102.43072 13.8496-129.10592 13.8496-16.11264 0-26.40384-0.62464-27.41248-0.6912-1.39264-0.08192-2.80064-0.1536-4.21376-0.1536a64.56832 64.56832 0 0 0-43.84768 17.1776 63.3344 63.3344 0 0 0-20.3264 46.44864v159.104c0 588.19584 387.67616 663.9616 404.14208 666.89536 3.7632 0.67072 7.53664 0.98816 11.33056 0.98816s7.60832-0.31744 11.33056-0.98816c16.47104-2.95424 406.99904-78.6944 406.99904-666.89536V193.11616c0-17.64352-7.40352-34.46272-20.3776-46.49984z m-43.71456 205.6192c0 541.7472-354.23744 604.2624-354.23744 604.2624s-351.3856-62.5152-351.3856-604.2624V193.13664s12.1088 0.83968 31.73376 0.83968c33.60256 0 90.1632-2.44736 144.36352-15.6928 88.7552-21.62176 175.28832-110.76096 175.28832-110.76096s90.38336 89.15456 179.0464 110.76096c54.272 13.24544 109.83936 15.6928 143.48288 15.6928 19.57376 0 31.72352-0.83968 31.72352-0.83968l-0.01536 159.10912z m-154.97728-32.96768l-248.27392 246.48192-123.15136-122.27584c-15.29344-15.17568-40.10496-15.17568-55.37792 0a38.67648 38.67648 0 0 0 0 54.97856l143.6416 142.62272a39.10144 39.10144 0 0 0 34.88768 19.456 39.13216 39.13216 0 0 0 34.88256-19.456l268.7744-266.8288a38.67648 38.67648 0 0 0 0-54.97856c-15.29344-15.2064-40.0896-15.2064-55.38304 0z"  p-id="6888"></path></svg>