<svg t="1677128949678" class="icon" viewBox="0 0 1024 1024" version="1.1" xmlns="http://www.w3.org/2000/svg" p-id="3429" width="200" height="200"><path d="M605.22666667 536.96c-6.93333333-2.66666667-13.86666667-5.22666667-20.90666667-7.57333333C656.10666667 485.33333333 704 406.08 704 315.73333333c0-138.45333333-112.21333333-250.77333333-250.77333333-250.77333333s-250.66666667 112.21333333-250.66666667 250.77333333c0 90.45333333 47.89333333 169.70666667 119.68 213.76C157.65333333 583.57333333 38.08 736.74666667 34.13333333 918.50666667h68.26666667c1.17333333-44.16 10.34666667-86.93333333 27.41333333-127.25333334 17.70666667-41.81333333 42.98666667-79.36 75.2-111.57333333 32.21333333-32.21333333 69.76-57.6 111.57333334-75.2 43.2-18.24 89.17333333-27.52 136.64-27.52 34.77333333 0 68.69333333 5.01333333 101.33333333 14.82666667 14.29333333-20.58666667 31.36-39.04 50.66666667-54.82666667ZM453.22666667 498.13333333c-48.74666667 0-94.50666667-18.98666667-128.96-53.44-34.45333333-34.45333333-53.44-80.32-53.44-128.96s18.98666667-94.61333333 53.44-129.06666666 80.32-53.44 128.96-53.44c48.74666667 0 94.50666667 18.98666667 128.96 53.44 34.56 34.45333333 53.54666667 80.32 53.54666666 129.06666666s-18.98666667 94.50666667-53.44 128.96c-34.45333333 34.45333333-80.32 53.44-129.06666666 53.44ZM773.22666667 548.8c-110.18666667 0-199.46666667 89.28-199.46666667 199.46666667s89.28 199.46666667 199.46666667 199.46666666 199.46666667-89.28 199.46666666-199.46666666-89.28-199.46666667-199.46666666-199.46666667Zm92.8 292.26666667c-24.74666667 24.74666667-57.70666667 38.4-92.8 38.4s-67.94666667-13.65333333-92.8-38.4c-24.74666667-24.74666667-38.4-57.70666667-38.4-92.8s13.65333333-67.94666667 38.4-92.8c24.74666667-24.74666667 57.70666667-38.4 92.8-38.4s67.94666667 13.65333333 92.8 38.4c24.74666667 24.74666667 38.4 57.70666667 38.4 92.8s-13.65333333 68.05333333-38.4 92.8Z" p-id="3430"></path><path d="M798.82666667 652.26666667h-51.2v70.4h-70.4v51.2h70.4v70.4h51.2v-70.4h70.4v-51.2h-70.4Z" p-id="3431"></path></svg>