<svg t="1675387064717" class="icon" viewBox="0 0 1024 1024" version="1.1" xmlns="http://www.w3.org/2000/svg" p-id="3266" width="200" height="200"><path d="M902.9449504 191.457584a241.70455467 241.70455467 0 0 0-344.11807253 0l-45.8535712 45.96171627-43.9069568-43.79881174a248.7339936 248.7339936 0 0 0-349.95791467 1.7303232 241.48826453 241.48826453 0 0 0 0 344.11807254L463.33465387 883.5869568a70.4025344 70.4025344 0 0 0 99.38545173 0L906.73003307 539.036304a237.919472 237.919472 0 0 0 70.18624426-169.7879872 252.95165653 252.95165653 0 0 0-73.97132693-177.7907328zM501.50991467 845.30355093L157.283696 501.1854784a187.5238016 187.5238016 0 0 1 0-267.5512608 196.0672736 196.0672736 0 0 1 138.4258752-57.20881813A190.6600128 190.6600128 0 0 1 430.89108907 231.9038944l43.25808533 43.25808533-2.16290347 2.16290454a95.7085152 95.7085152 0 0 0-28.11775573 67.37446933A89.86867307 89.86867307 0 0 0 470.90481813 409.26204587a91.166416 91.166416 0 0 0 129.77425814 0l3.78508266-3.78508267 179.95363627 179.84549227-39.25671253 39.25671253-129.77425707-129.77425707a27.036304 27.036304 0 0 0-38.1752608 38.1752608l129.77425707 129.77425707-39.14856747 39.2567136-229.48414507-229.48414613a27.036304 27.036304 0 0 0-38.1752608 38.28340586L629.55384853 740.18640213l-39.14856853 39.2567136L360.92113493 549.8508256A27.036304 27.036304 0 0 0 322.74587413 588.24237653l229.376 229.376-27.6851744 27.6851744a16.5462176 16.5462176 0 0 1-22.92678506 0z m367.0448576-344.00992746l-45.96171627 45.8535712-198.77090453-198.8790496a27.25259413 27.25259413 0 0 0-38.28340587 0l-22.81864 22.92678613a37.20195413 37.20195413 0 0 1-54.07260693 0 36.33679253 36.33679253 0 0 1-10.8145216-25.95485227 41.311472 41.311472 0 0 1 12.2204096-29.0910624l2.27104853-2.2710496 84.13697707-84.13697706a187.84823787 187.84823787 0 0 1 267.65940586 0 198.013888 198.013888 0 0 1 58.72285227 139.50732693 184.82017173 184.82017173 0 0 1-54.28889813 132.04530667z"  p-id="3267"></path></svg>