<svg t="1673409078313" class="icon" viewBox="0 0 1024 1024" version="1.1" xmlns="http://www.w3.org/2000/svg" p-id="38607" width="200" height="200"><path d="M860 323.1v-2.6l-0.7-1-0.2-1.1-0.4-0.4c-0.5-1.4-1.1-2.8-1.9-4.2-0.3-0.5-0.5-1-0.8-1.4l-0.1-0.2c-0.5-0.8-1-1.6-1.5-2.3v-0.8L610.6 77.4v-0.9l-4.1-3-1.1-1.1-0.4-0.4-1.3-1.3h-0.7c-0.9-0.6-1.8-1.1-2.7-1.7-0.5-0.3-1.1-0.6-1.8-0.9-2.6-1.2-5-2-7.6-2.5l-0.8-0.2h-0.7c-1.7-0.3-3.3-0.4-4.9-0.4H234c-38.9 0-70.5 30.4-70.5 67.8V891c0 37.4 31.6 67.9 70.5 67.9h556c38.9 0 70.5-30.4 70.5-67.9V327.9c-0.1-1.6-0.2-3.2-0.5-4.8zM616.7 170.5l132.9 126.3H616.7V170.5z m179.5 720.6c0 3-2.8 5.4-6.2 5.4H234c-3.4 0-6.2-2.4-6.2-5.4V132.9c0-3 2.8-5.4 6.2-5.4h318.4V328c0 17.2 14.4 31.2 32.1 31.2h211.7v531.9z" fill="" p-id="38608"></path><path d="M686.4 697.5H337.6c-17.1 0-31.1 14.4-31.1 32.1 0 17.7 13.9 32.1 31.1 32.1h348.9c17.1 0 31.1-14.4 31.1-32.1-0.1-17.7-14-32.1-31.2-32.1zM686.4 563.2H337.6c-17.1 0-31.1 14.4-31.1 32.1 0 17.7 13.9 32.1 31.1 32.1h348.9c17.1 0 31.1-14.4 31.1-32.1-0.1-17.7-14-32.1-31.2-32.1zM306.5 461c0 17.7 13.9 32.1 31.1 32.1h348.9c17.1 0 31.1-14.4 31.1-32.1 0-17.7-14-32.1-31.1-32.1H337.6c-17.2 0-31.1 14.4-31.1 32.1z" fill="" p-id="38609"></path></svg>