<svg t="1674019455504" class="icon" viewBox="0 0 1024 1024" version="1.1" xmlns="http://www.w3.org/2000/svg" p-id="30130" width="200" height="200"><path d="M316.509091 316.509091V158.254545C316.509091 69.818182 386.327273 0 474.763636 0h395.636364C954.181818 0 1024 69.818182 1024 158.254545V1024H0V474.763636c0-88.436364 69.818182-158.254545 158.254545-158.254545h158.254546z m79.127273 0v628.363636h549.236363V158.254545c0-41.890909-37.236364-79.127273-79.127272-79.127272h-395.636364c-41.890909 0-79.127273 37.236364-79.127273 79.127272v158.254546zM316.509091 395.636364H158.254545c-41.890909 0-79.127273 37.236364-79.127272 79.127272v474.763637h237.381818V395.636364z m232.727273-41.890909c-23.272727 0-37.236364-18.618182-37.236364-37.236364 0-23.272727 18.618182-37.236364 37.236364-37.236364h237.381818c23.272727 0 37.236364 18.618182 37.236363 37.236364 0 23.272727-18.618182 37.236364-37.236363 37.236364h-237.381818z m0 195.490909c-23.272727 0-37.236364-18.618182-37.236364-37.236364 0-23.272727 18.618182-37.236364 37.236364-37.236364h237.381818c23.272727 0 37.236364 18.618182 37.236363 37.236364 0 23.272727-18.618182 37.236364-37.236363 37.236364h-237.381818z m0 237.381818c-23.272727 0-37.236364-18.618182-37.236364-37.236364 0-23.272727 18.618182-37.236364 37.236364-37.236363h237.381818c23.272727 0 37.236364 18.618182 37.236363 37.236363 0 23.272727-18.618182 37.236364-37.236363 37.236364h-237.381818z"  p-id="30131"></path></svg>