<svg t="1674019239039" class="icon" viewBox="0 0 1024 1024" version="1.1" xmlns="http://www.w3.org/2000/svg" p-id="20190" width="200" height="200"><path d="M512 490.666667c-100.266667 0-181.333333-81.066667-181.333333-181.333334S411.733333 128 512 128s181.333333 81.066667 181.333333 181.333333S612.266667 490.666667 512 490.666667z m0-320c-76.8 0-138.666667 61.866667-138.666667 138.666666S435.2 448 512 448s138.666667-61.866667 138.666667-138.666667S588.8 170.666667 512 170.666667zM832 896H192c-23.466667 0-42.666667-19.2-42.666667-42.666667v-85.333333c0-46.933333 38.4-85.333333 85.333334-85.333333h554.666666c46.933333 0 85.333333 38.4 85.333334 85.333333v85.333333c0 23.466667-19.2 42.666667-42.666667 42.666667z m0-42.666667v21.333334-21.333334z m-597.333333-128c-23.466667 0-42.666667 19.2-42.666667 42.666667v85.333333h640v-85.333333c0-23.466667-19.2-42.666667-42.666667-42.666667H234.666667z" fill="#666666" p-id="20191"></path><path d="M270.848 693.290667l163.754667-244.672 35.456 23.744L306.346667 717.013333zM552.746667 470.570667l35.456-23.744 163.797333 244.608-35.434667 23.744z"  p-id="20192"></path></svg>