<svg t="1676628541459" class="icon" viewBox="0 0 1024 1024" version="1.1" xmlns="http://www.w3.org/2000/svg" p-id="3368" width="200" height="200"><path d="M775.66572266 933.875l-527.33320313 0c-58.26181641 0-105.45820312-47.23769531-105.45820312-105.45820312l0-527.33408204c0-58.26181641 47.19638672-105.49951172 105.45820312-105.49951172l79.08310547 0 0-52.70976562 71.04023438 0c22.8234375-31.39628906 64.87470703-52.74931641 113.54238281-52.74931641s90.72070313 21.35302734 113.54326172 52.74931641l70.99980468 0 0 52.70976562 79.12353516 0c58.22138672 0 105.45908203 47.23769531 105.45908203 105.49951172l0 527.33408203c0.00087891 58.22050781-47.23681641 105.45820312-105.45820312 105.45820313l0 0zM643.83330078 195.58408203l-58.58876953 0c0-29.11113281-32.78408203-52.70976563-73.24541016-52.70976562-40.46044922 0-73.24541016 23.59863281-73.24541015 52.70976562l-58.58701172 0 0 105.49951172 263.66660156 0 0-105.49951172zM828.37460937 301.08271484c0-29.1515625-23.59863281-52.74931641-52.70888671-52.7493164l-79.12353516 0 0 105.45820312-369.12480469 0 0-105.45820312-79.08310547 0c-29.11025391 0-52.75019531 23.59863281-52.75019531 52.7493164l0 527.33408203c0 29.109375 23.64082031 52.70800781 52.75019531 52.70800782l527.33320313 0c29.11025391 0 52.70888672-23.59863281 52.70888672-52.70800782l0-527.33408203-0.00087891 0zM696.5421875 775.66572266l-369.12480469 0c-14.53447266 0-26.33466797-11.79931641-26.33466797-26.37421875 0-14.57578125 11.79931641-26.37509766 26.33466797-26.37509766l369.12480469 0c14.57490234 0 26.37421875 11.79931641 26.37421875 26.37509766-0.00087891 14.57490234-11.80019531 26.37421875-26.37421875 26.37421875l0 0zM696.5421875 643.83242187l-369.12480469 1e-8c-14.53447266 0-26.33466797-11.79931641-26.33466797-26.37421875 0-14.53447266 11.79931641-26.37421875 26.33466797-26.37421875l369.12480469 0c14.57490234 0 26.37421875 11.83974609 26.37421875 26.37421875-0.00087891 14.57578125-11.80019531 26.37421875-26.37421875 26.37421875l0 0zM696.5421875 512l-369.12480469 0c-14.53447266 0-26.33466797-11.79931641-26.33466797-26.37509766s11.79931641-26.37509766 26.33466797-26.37509765l369.12480469 0c14.57490234 0 26.37421875 11.79931641 26.37421875 26.37509765s-11.80019531 26.37509766-26.37421875 26.37509766l0 0z"  p-id="3369"></path></svg>