<svg t="1673408898475" class="icon" viewBox="0 0 1024 1024" version="1.1" xmlns="http://www.w3.org/2000/svg" p-id="32701" width="200" height="200"><path d="M273.423 396.155l178.482-127.931c7.694-5.515 18.384-3.869 24.063 3.703l100.47 133.96c10.254 13.672 29.649 16.443 43.321 6.189l162.979-122.234c9.426-7.069 11.336-20.441 4.267-29.867-7.07-9.426-20.441-11.336-29.867-4.267L618.062 360.016c-8.021 6.016-19.4 4.39-25.416-3.631l-104.15-138.867c-6.524-8.699-18.771-10.655-27.68-4.422L251.472 359.568c-10.103 6.062-13.379 19.166-7.317 29.269 6.061 10.104 19.166 13.379 29.268 7.318z" p-id="32702"></path><path d="M954.182 69.818H69.818c-12.853 0-23.273 10.42-23.273 23.273s10.42 23.273 23.273 23.273h69.818V665.76c0 30.759 24.935 55.694 55.694 55.694h633.339c30.759 0 55.694-24.935 55.694-55.694V116.364h69.818c12.853 0 23.273-10.42 23.273-23.273 0.001-12.853-10.419-23.273-23.272-23.273zM837.818 665.76c0 5.045-4.104 9.149-9.149 9.149H195.331c-5.045 0-9.149-4.104-9.149-9.149V116.364h651.637V665.76z" p-id="32703"></path><path d="M302.545 535.273h325.818c12.853 0 23.273-10.42 23.273-23.273s-10.419-23.273-23.273-23.273H302.545c-12.853 0-23.273 10.42-23.273 23.273 0.001 12.853 10.42 23.273 23.273 23.273zM721.455 581.818h-418.91c-12.853 0-23.273 10.419-23.273 23.273 0 12.853 10.42 23.273 23.273 23.273h418.909c12.853 0 23.273-10.42 23.273-23.273s-10.419-23.273-23.272-23.273zM169.48 917.422c-7.864 7.864-8.793 20.555-1.651 29.08 8.158 9.738 22.696 10.216 31.48 1.431l226.478-226.479h-60.339L169.48 917.422zM645.908 721.455h-60.339l226.478 226.479a21.266 21.266 0 0 0 15.085 6.249 21.282 21.282 0 0 0 16.082-7.315c7.44-8.502 6.669-21.437-1.32-29.426L645.908 721.455z" p-id="32704"></path></svg>