<svg t="1675386664115" class="icon" viewBox="0 0 1024 1024" version="1.1" xmlns="http://www.w3.org/2000/svg" p-id="31808" width="200" height="200"><path d="M628.058 610.883c15.618-0.329 28.109-13.078 28.109-28.699 0-15.623-12.491-28.377-28.109-28.701h-60.561l57.511-57.51c10.94-11.251 10.814-29.201-0.276-40.293-11.099-11.096-29.052-11.218-40.295-0.281l-71.132 71.125-71.11-71.125c-11.25-10.938-29.201-10.815-40.295 0.281-11.095 11.093-11.221 29.042-0.28 40.293l57.513 57.51h-60.586c-15.853 0-28.699 12.848-28.699 28.701 0 15.847 12.846 28.699 28.699 28.699h86.069v57.348h-86.069c-15.853 0-28.708 12.853-28.708 28.706 0 15.852 12.855 28.705 28.708 28.705h86.069v76.507c0 15.841 12.841 28.685 28.684 28.685 15.845 0 28.689-12.844 28.689-28.685v-76.507h86.068a28.712 28.712 0 0 0 20.299-8.405 28.684 28.684 0 0 0 8.393-20.313 28.65 28.65 0 0 0-8.401-20.291 28.65 28.65 0 0 0-20.29-8.402H541.99v-57.348h86.068z m0 0" p-id="31809"></path><path d="M942.081 681.9c-6.751-186.794-167.086-311.27-242.62-359.756 25.051-27.951 50.199-67.312 56.136-108.461 4.331-29.878-2.33-57.173-19.262-78.956-21.63-27.731-47.304-33.55-65.037-33.55-22.286 0-42.856 9.179-58.817 19.384-18.579-24.93-50.57-53.158-100.207-53.337-0.555 0-1.091 0-1.65 0.034-48.706 0.678-80.192 28.6-98.552 53.283-15.96-10.172-36.542-19.354-58.76-19.354-17.733 0-43.408 5.823-65.04 33.553-16.962 21.783-23.62 49.075-19.292 79.014 5.942 41.145 31.097 80.452 56.137 108.392C249.57 370.63 89.199 495.106 82.452 681.9c-3.333 92.366 18.761 163.851 65.628 212.471 56.764 58.811 132.366 65.171 162.201 65.171h403.956c29.883 0 105.474-6.346 162.234-65.194 46.883-48.62 68.977-120.081 65.61-212.448zM338.544 173.944c7.004-9.023 12.235-9.023 14.753-9.023 15.352 0 36.542 17.277 44.352 25.552a31.648 31.648 0 0 0 29.465 9.526 32.086 32.086 0 0 0 23.75-20.01c0.745-2 18.892-48.174 60.498-49.023 0.347 0.035 0.683 0.035 1.062 0.035 42.072 0.124 60.465 46.989 61.177 48.762a31.871 31.871 0 0 0 23.575 20.263 31.874 31.874 0 0 0 29.606-9.452c7.911-8.375 29.134-25.641 44.502-25.641 2.525 0 7.756 0 14.76 8.987 3.948 5.077 8.934 13.785 6.47 30.654-4.954 34.23-54.442 93.365-54.442 93.365l-251.367 0.159s-49.676-59.105-54.664-93.494c-2.452-16.873 2.522-25.594 6.503-30.66z m492.06 676.133c-39.805 41.268-94.639 45.718-116.355 45.718H310.29c-21.728 0-76.527-4.45-116.333-45.684-34.389-35.669-50.503-91.496-47.838-165.904 6.879-190.212 233.716-324.196 237.608-324.196h255.195c3.608 0 232.598 134.294 239.478 324.196 2.676 74.408-13.373 130.212-47.796 165.87z m0 0" p-id="31810"></path></svg>