<svg t="1673409867089" class="icon" viewBox="0 0 1024 1024" version="1.1" xmlns="http://www.w3.org/2000/svg" p-id="75769" width="200" height="200"><path d="M114.496 191.274667c107.84-107.84 282.666667-107.84 390.506667 0l6.976 6.954666 7.018666-6.954666c104.149333-104.170667 271.253333-107.925333 380.245334-9.728l5.333333 4.906666 4.906667 4.821334c105.706667 105.685333 108.032 276.202667 5.248 385.109333l-5.248 5.397333-26.026667 25.984-0.682667 1.6a42.453333 42.453333 0 0 1-5.802666 8.981334l-2.496 2.730666-330.176 330.154667a42.56 42.56 0 0 1-31.872 12.458667l-0.490667-0.042667-4.096 0.021333a42.496 42.496 0 0 1-25.429333-9.941333l-2.709334-2.496L149.525333 621.077333a42.602667 42.602667 0 0 1-8.277333-11.648l-0.682667-1.6-26.069333-26.069333C8.384 475.648 6.698667 304.64 109.461333 196.48z m730.944 56.704c-74.88-70.997333-192.96-69.525333-266.112 3.626666l-37.184 37.162667a42.666667 42.666667 0 0 1-60.330667 0l-37.141333-37.162667A190.784 190.784 0 1 0 174.848 521.429333l37.141333 37.141334c3.498667 3.498667 6.250667 7.445333 8.277334 11.648l0.704 1.621333L512 862.869333l290.986667-290.986666 0.682666-1.6a42.453333 42.453333 0 0 1 5.824-9.002667l2.496-2.709333 36.736-36.693334 4.373334-4.501333c70.677333-74.901333 69.077333-192.746667-3.541334-265.386667zM533.333333 362.666667a21.333333 21.333333 0 0 1 21.333334 21.333333v85.333333h85.333333a21.333333 21.333333 0 0 1 21.333333 21.333334v42.666666a21.333333 21.333333 0 0 1-21.333333 21.333334h-85.333333v85.333333a21.333333 21.333333 0 0 1-21.333334 21.333333h-42.666666a21.333333 21.333333 0 0 1-21.333334-21.333333v-85.333333h-85.333333a21.333333 21.333333 0 0 1-21.333333-21.333334v-42.666666a21.333333 21.333333 0 0 1 21.333333-21.333334h85.333333v-85.333333a21.333333 21.333333 0 0 1 21.333334-21.333333h42.666666z"  p-id="75770"></path></svg>