<svg t="1674018924198" class="icon" viewBox="0 0 1024 1024" version="1.1" xmlns="http://www.w3.org/2000/svg" p-id="3120" width="200" height="200"><path d="M706 599.6c23.5-27.4 43.5-52.9 55.7-72.9C791.6 478 809 419.9 809 357.6c0-172.3-131-292.9-294.4-292.9S217.1 185.3 217.1 357.6c0 56.8 14.4 110.1 39.6 156 13 23.8 36.1 54.1 63.2 86.1C192.1 631.5 107 694.4 107 768.4c0 107.1 178.4 191 406 191s406-83.9 406-191c0.1-74.1-85.1-137-213-168.8zM315.2 315.9h137.6v-136h118.7v135.9h137.6V438H571.5v135.9H452.8V438H315.2V315.9zM781 875.5c-71.3 31.9-166.4 49.4-267.9 49.4s-196.7-17.5-267.9-49.4C179.3 846 141.5 807 141.5 768.3s37.8-77.7 103.7-107.2c29.7-13.3 63.6-24 100.4-32.1 76 85.3 167.6 172 167.6 172s92.2-88.6 167.2-172.1c36.9 8.1 70.9 18.9 100.8 32.2 65.9 29.5 103.7 68.5 103.7 107.2-0.2 38.7-38 77.8-103.9 107.2z" p-id="3121"></path></svg>