<svg t="1736298690112" class="icon" viewBox="0 0 1024 1024" version="1.1" xmlns="http://www.w3.org/2000/svg" p-id="5368" width="200" height="200"><path d="M269.5168 924.8768c0-190.0544 155.10186667-342.97173333 345.15626667-340.7872 137.6256 2.18453333 257.77493333 89.56586667 312.38826666 216.2688 17.47626667 43.69066667 26.2144 85.1968 26.2144 124.5184 0 19.6608 15.29173333 37.13706667 34.95253334 37.13706667h4.36906666c19.6608 0 37.13706667-15.29173333 37.13706667-34.95253334 0-179.13173333-111.4112-329.86453333-268.6976-391.03146666 65.536-45.8752 109.22666667-122.33386667 109.22666667-209.7152 2.18453333-139.81013333-111.4112-257.77493333-251.22133334-262.144-150.7328-6.5536-270.88213333 111.4112-270.88213333 259.95946666 0 87.38133333 43.69066667 166.02453333 111.4112 211.89973334-155.10186667 61.16693333-266.51306667 211.89973333-266.51306667 388.84693333v2.18453333c0 17.47626667 15.29173333 32.768 34.95253334 32.768h8.73813333c17.47626667 0 32.768-15.29173333 32.768-34.95253333z m157.2864-570.1632c-21.84533333-126.70293333 87.38133333-233.74506667 211.89973333-211.89973333 76.45866667 13.1072 137.6256 74.27413333 150.7328 150.7328 21.84533333 126.70293333-87.38133333 233.74506667-211.89973333 211.89973333-76.45866667-13.1072-137.6256-74.27413333-150.7328-150.7328z" p-id="5369"></path><path d="M311.02293333 487.97013333c-69.90506667-15.29173333-120.14933333-76.45866667-120.14933333-150.7328 0-74.27413333 52.4288-135.44106667 122.33386667-150.7328 13.1072-2.18453333 24.02986667-15.29173333 24.02986666-30.58346666 0-19.6608-19.6608-34.95253333-39.3216-30.58346667-98.304 21.84533333-172.57813333 109.22666667-172.57813333 214.08426667 0 74.27413333 37.13706667 139.81013333 93.93493333 179.13173333-131.072 50.24426667-222.8224 179.13173333-222.8224 327.68 0 10.92266667 0 19.6608 2.18453334 30.58346667v2.18453333c0 17.47626667 15.29173333 32.768 32.768 32.768s32.768-15.29173333 32.768-32.768v-2.18453333c0-8.73813333-2.18453333-19.6608-2.18453334-30.58346667 0-144.1792 107.04213333-264.32853333 246.85226667-283.98933333 17.47626667-2.18453333 32.768-17.47626667 32.768-37.13706667-4.36906667-17.47626667-15.29173333-32.768-30.58346667-37.13706667z" p-id="5370"></path></svg>