<svg t="1678848665761" class="icon" viewBox="0 0 1024 1024" version="1.1" xmlns="http://www.w3.org/2000/svg" p-id="3633" width="200" height="200"><path d="M206.75 480.5c-41.25-0.75-75 31.5-76.5 72.75v120H91.25C60.5 672.5 35 696.5 34.25 728v159.75c0.75 30.75 26.25 54.75 57 54h155.25c30.75 0.75 56.25-23.25 57-54.75V728c-0.75-30.75-26.25-55.5-57-54.75h-51V543.5h283.5v130.5h-45c-30.75-0.75-56.25 23.25-57.75 54.75v159.75c0.75 30.75 26.25 54.75 57.75 54h156c30.75 0.75 56.25-23.25 57-54.75V728c-0.75-30.75-26.25-55.5-57-54.75h-45V543.5h283.5v130.5h-51c-30.75-0.75-56.25 23.25-57 54.75v159.75c0.75 30.75 26.25 54.75 57 54h156c30.75 0.75 56.25-23.25 57-54.75V728c-0.75-30.75-26.25-55.5-57.75-54.75h-39v-120c-0.75-41.25-35.25-73.5-76.5-72.75H206.75z m19.5 255.75c6.75 0 12 5.25 12 11.25v120.75c0 6.75-5.25 11.25-12 11.25H111.5c-6.75 0-12-5.25-12-11.25V747.5c0-6.75 5.25-11.25 12-11.25h114.75z m343.5 0c6.75 0 12 5.25 12 11.25v120.75c0 6.75-5.25 11.25-12 11.25H454.25c-6.75 0-12-5.25-12-11.25V747.5c0-6.75 5.25-11.25 12-11.25h115.5z m354.75 132c0 6.75-5.25 11.25-12 11.25h-114.75c-6.75 0-12-5.25-12-11.25V747.5c0-6.75 5.25-11.25 12-11.25h114.75c6.75 0 12 5.25 12 11.25v120.75zM661.25 267.5c-4.5-6-4.5-14.25 0-20.25l35.25-42.75-3.75-9.75-4.5-9.75c-3-7.5-6-14.25-9-18.75-4.5-9.75-10.5-18.75-18-26.25l-6.75-6.75-54 7.5c-8.25 0.75-15.75-4.5-18.75-12L564.5 79.25l-10.5-1.5c-27-6-54-6-81 0l-9 1.5-18.75 51c-3 6.75-9.75 10.5-17.25 10.5h-1.5l-53.25-9-7.5 7.5c-14.25 17.25-25.5 36.75-33 57.75l-3.75 9 35.25 42.75c4.5 5.25 4.5 13.5 0 19.5L327.5 309.5l3.75 9c3 12 8.25 23.25 14.25 33 4.5 9 10.5 17.25 17.25 24.75l6.75 6.75 55.5-9c7.5-0.75 14.25 3 17.25 10.5l18 51 10.5 1.5c27 6 55.5 6 82.5 0l9-2.25 18.75-52.5c3-6.75 9.75-11.25 17.25-10.5l54 9 7.5-6.75c14.25-16.5 24.75-35.25 32.25-56.25l3.75-9-34.5-41.25z m-147.75 66.75c-42.75 0-77.25-34.5-77.25-77.25 0-42.75 34.5-77.25 77.25-77.25 42.75 0 77.25 34.5 77.25 77.25 0 42.75-34.5 76.5-77.25 77.25z" p-id="3634"></path></svg>