<svg t="1678845023503" class="icon" viewBox="0 0 1024 1024" version="1.1" xmlns="http://www.w3.org/2000/svg" p-id="9512" width="200" height="200"><path d="M675.001996 369.948104h-367.904192c-22.483034 0-40.878244 18.39521-40.878243 40.878243s18.39521 40.878244 40.878243 40.878244h367.904192c22.483034 0 40.878244-18.39521 40.878244-40.878244s-18.39521-40.878244-40.878244-40.878243zM675.001996 533.461078h-367.904192c-22.483034 0-40.878244 18.39521-40.878243 40.878243s18.39521 40.878244 40.878243 40.878244h367.904192c22.483034 0 40.878244-18.39521 40.878244-40.878244s-18.39521-40.878244-40.878244-40.878243zM552.367265 696.974052h-245.269461c-22.483034 0-40.878244 18.39521-40.878243 40.878243s18.39521 40.878244 40.878243 40.878244h245.269461c22.483034 0 40.878244-18.39521 40.878244-40.878244s-18.39521-40.878244-40.878244-40.878243z" p-id="9513"></path><path d="M819.608782 83.800399h-49.56487c-16.862275-47.520958-62.339321-81.756487-115.481038-81.756487h-286.147704c-53.652695 0-98.618762 34.235529-115.481038 81.756487h-46.499002c-56.207585 0-102.195609 45.988024-102.195609 102.195609v735.808383c0 56.207585 45.988024 102.195609 102.195609 102.195609h613.173652c56.718563 0 102.195609-45.988024 102.195609-102.195609v-735.808383c0-56.718563-45.988024-102.195609-102.195609-102.195609z m-451.193612-10.219561h286.147704c28.103792 0 51.097804 22.994012 51.097805 51.097805s-22.994012 51.097804-51.097805 51.097804h-286.147704c-28.103792 0-51.097804-22.994012-51.097805-51.097804s22.994012-51.097804 51.097805-51.097805z m471.632734 848.223553c0 11.241517-9.197605 20.439122-20.439122 20.439122h-613.173652c-11.241517 0-20.439122-9.197605-20.439122-20.439122v-735.808383c0-11.241517 9.197605-20.439122 20.439122-20.439122h46.499002c16.862275 47.520958 62.339321 81.756487 115.481038 81.756487h286.147704c53.141717 0 98.618762-34.235529 115.481038-81.756487h49.56487c11.241517 0 20.439122 9.197605 20.439122 20.439122v735.808383z" p-id="9514"></path></svg>