<svg t="1685958216832" class="icon" viewBox="0 0 1024 1024" version="1.1" xmlns="http://www.w3.org/2000/svg" p-id="3813" width="200" height="200"><path d="M818.81818174 117.94318174a102.27272695 102.27272695 0 0 1 102.27272695 102.27272695v614.61818262a81.81818174 81.81818174 0 0 1-130.275 65.925l-122.4204539-89.95909131-102.43636348 91.88181826a81.81818174 81.81818174 0 0 1-104.35909131 4.09090869l-3.39545479-2.76136347-109.32954521-93.33409043-114.525 87.38181826a81.81818174 81.81818174 0 0 1-111.94772695-12.02727305l-2.72045479-3.39545478A81.81818174 81.81818174 0 0 1 102.90909131 833.01363653V220.21590869a102.27272695 102.27272695 0 0 1 102.27272695-102.27272695z m0 81.81818174H205.18181826a20.45454521 20.45454521 0 0 0-20.45454521 20.45454521v612.77727305l127.65681826-97.36363653a61.36363652 61.36363652 0 0 1 73.84090869-0.45l3.21136348 2.55681827 121.90909131 104.05227305 114.81136347-103.00909132a61.36363652 61.36363652 0 0 1 77.31818174-3.76363652L839.27272695 834.83409131V220.21590869a20.45454521 20.45454521 0 0 0-20.45454521-20.45454521zM675.63636347 532.45454521a40.90909131 40.90909131 0 1 1 1e-8 81.81818174H348.36363653a40.90909131 40.90909131 0 1 1-1e-8-81.81818174h327.27272695z m1e-8-184.09090868a40.90909131 40.90909131 0 1 1 0 81.81818173H348.36363653a40.90909131 40.90909131 0 1 1-1e-8-81.81818174h327.27272695z" p-id="3814"></path></svg>