<svg t="1678842830633" class="icon" viewBox="0 0 1024 1024" version="1.1" xmlns="http://www.w3.org/2000/svg" p-id="3673" width="200" height="200"><path d="M516.0171875 44.84c-260.23125 0-471.1771875 210.969375-471.1771875 471.1725 0 260.218125 210.9459375 471.1875 471.178125 471.1875 260.240625 0 471.181875-210.969375 471.181875-471.1875 0-260.203125-210.94125-471.1725-471.1828125-471.1725z m183.6534375 533.98125c30.6 0 51.9065625 14.3803125 51.9065625 50.85 0 28.018125-14.5771875 46.704375-45.1771875 46.704375H582.76625v73.1625c0 35.0878125-28.501875 60.9740625-66.7490625 60.9740625-38.274375 0-66.7771875-25.8909375-66.7771875-60.975v-73.1615625H329.0909375c-30.6 0-48.63375-23.29875-48.63375-51.2971875 0-28.08 18-46.2628125 48.63375-46.2628125h120.1490625v-60.96H329.0909375c-30.6 0-48.63375-21.6234375-48.63375-49.6846875 0-28.08 18-47.855625 48.63375-47.855625l116.2753125 0.0478125L323.73875 308.95625c-21.796875-19.9490625-21.796875-52.3396875 0-72.2878125 21.7734375-19.96875 57.1153125-19.96875 78.9225 0l112.4109375 102.9984375 112.876875-103.40625c21.7725-19.9640625 57.1434375-19.9640625 78.9121875 0 21.825 20.0109375 21.825 52.33875 0 72.2878125l-121.7625 111.7678125H702.959375c30.5953125 0 48.624375 19.843125 48.624375 47.855625 0 28.06125-18.0290625 49.6846875-48.624375 49.6846875h-120.1875v60.965625h116.8996875z"  p-id="3674"></path></svg>