<svg t="1678851274386" class="icon" viewBox="0 0 1024 1024" version="1.1" xmlns="http://www.w3.org/2000/svg" p-id="3922" width="200" height="200"><path d="M459.04384 939.52H284.61056c-12.7488 0-154.05056 6.20544-154.05056-5.49376V613.5296 167.40352c0-11.37664-8.12032-62.44352 9.14432-62.44352h666.17344c9.72288 0 17.52576-1.6128 17.52576 10.50112v294.08256c0 33.01888 51.2 33.01888 51.2 0V229.376 127.75424c0-32.73728-7.82336-61.43488-43.32544-72.45824-11.22816-3.48672-26.4704-1.536-38.00064-1.536H135.8848c-59.6736 0-56.5248 59.14112-56.5248 100.56192V931.75296c0 69.84704 76.94848 58.96704 124.032 58.96704h255.65184c33.01888 0 33.01888-51.2 0-51.2z"  p-id="3923"></path><path d="M965.38112 752.64512c-1.72544 108.79488-88.32512 195.39456-197.12 197.12-108.80512 1.72544-195.43552-90.92608-197.12-197.12-1.72544-108.80512 90.9312-195.42528 197.12-197.10976 108.8-1.73056 195.43552 90.91584 197.12 197.10976 0.52736 32.98304 51.72736 33.03424 51.2 0-1.86368-117.48864-83.5328-219.24352-199.18848-243.35872-114.76992-23.95136-233.76384 40.5504-278.35904 148.3008-45.72672 110.46912-4.52608 235.16672 92.48256 302.31552 97.4848 67.4816 232.78592 47.85152 314.69056-34.05312 45.68064-45.68064 69.36576-109.25056 70.37952-173.19936 0.51712-33.03936-50.68288-32.98816-51.20512-0.00512z"  p-id="3924"></path><path d="M661.43232 682.01984l177.4592 177.4592c23.36256 23.36768 59.5712-12.83584 36.1984-36.1984a2899484.6976 2899484.6976 0 0 0-177.4592-177.4592c-23.36768-23.3728-59.5712 12.83584-36.1984 36.1984z"  p-id="3925"></path><path d="M838.89152 645.82144a2899484.6976 2899484.6976 0 0 0-177.4592 177.4592c-23.36768 23.36256 12.83584 59.5712 36.1984 36.1984l177.4592-177.4592c23.36768-23.36256-12.83584-59.5712-36.1984-36.1984zM226.99008 311.49056h511.1552c33.01376 0 33.01376-51.2 0-51.2H226.99008c-33.01376 0-33.01376 51.2 0 51.2zM226.99008 536.77568H512c33.01376 0 33.01376-51.20512 0-51.20512H226.99008c-33.01376 0-33.01376 51.20512 0 51.20512zM226.99008 746.12736h168.9088c33.01888 0 33.01888-51.2 0-51.2h-168.9088c-33.01376 0-33.01376 51.2 0 51.2z"  p-id="3926"></path></svg>