<svg t="1678848775672" class="icon" viewBox="0 0 1024 1024" version="1.1" xmlns="http://www.w3.org/2000/svg" p-id="3775" width="200" height="200"><path d="M447.03291817 529.73744961a233.86872481 233.86872481 0 0 0-1e-8-467.73744961C317.87772031 62 213.17696299 166.71352783 213.17696299 295.86872481s104.70075732 233.86872481 233.85595517 233.8687248zM327.7233459 176.54638291a168.75478916 168.75478916 0 1 1-49.41967676 119.3223419 167.61826406 167.61826406 0 0 1 49.41967675-119.3223419zM625.5567125 568.96671289H268.52189346C160.42433135 568.96671289 71.99248027 657.38579434 71.99248027 765.47058682s88.43185107 196.52941318 196.52941319 196.52941318h357.03481904c108.09756211 0 196.52941318-88.4446207 196.52941406-196.52941318S733.65427549 568.96671289 625.5567125 568.96671289z m92.74809199 289.27750518a130.41942187 130.41942187 0 0 1-92.74809199 38.65461591H268.52189346a131.40270703 131.40270703 0 0 1 0-262.80541494h357.03481904a131.16007792 131.16007792 0 0 1 92.74809199 224.15079903z"  p-id="3776"></path><path d="M725.14949346 278.43775332m32.56335351 0l161.73132012 0q32.56335352 0 32.56335264 32.56335352l0 0q0 32.56335352-32.56335264 32.56335263l-161.73132012 0q-32.56335352 0-32.56335351-32.56335263l0 0q0-32.56335352 32.56335351-32.56335352Z"  p-id="3777"></path><path d="M725.14949346 378.66903154m32.56335351 0l161.73132012 0q32.56335352 0 32.56335264 32.56335264l0 0q0 32.56335352-32.56335264 32.56335352l-161.73132012 0q-32.56335352 0-32.56335351-32.56335352l0 0q0-32.56335352 32.56335351-32.56335264Z"  p-id="3778"></path><path d="M725.14949346 464.61074346m32.56335351 0l161.73132012 0q32.56335352 0 32.56335264 32.56335351l0 0q0 32.56335352-32.56335264 32.56335264l-161.73132012 0q-32.56335352 0-32.56335351-32.56335264l0 0q0-32.56335352 32.56335351-32.56335351Z"  p-id="3779"></path></svg>