<svg t="1678851325210" class="icon" viewBox="0 0 1024 1024" version="1.1" xmlns="http://www.w3.org/2000/svg" p-id="4069" width="200" height="200"><path d="M828.11787942 766.92423913c-17.24022436 0-31.08892829 13.84870394-31.08892828 31.08892829l0 122.23601475c0 7.9135449-6.92435197 13.9900178-14.83789827 13.99001779L175.39168969 934.23919996c-7.9135449 0-14.27264415-6.21778538-14.27264418-13.99001779L161.11904551 118.29613503c0-7.9135449 6.50041173-14.97921073 14.27264418-14.97921075l606.79936318 0c7.9135449 0 14.83789824 7.06566585 14.83789827 14.97921075l0 287.57259109c0 17.24022436 13.84870394 31.08892829 31.08892828 31.08892829s31.08892829-13.84870394 31.08892827-31.08892829L859.20680769 118.29613503c0-42.25267974-34.62176119-77.15706868-77.01575482-77.15706869L175.39168969 41.13906634c-42.25267974 0-76.45050211 34.90438755-76.45050212 77.15706869l0 801.95304714c0 42.25267974 34.19782097 76.16787574 76.45050212 76.16787575l606.79936318 0c42.25267974 0 77.01575482-33.9151946 77.01575482-76.16787575l0-122.23601475C859.20680769 780.77294306 845.35810377 766.92423913 828.11787942 766.92423913z" p-id="4070"></path><path d="M970.98563895 426.07652931L970.98563895 426.07652931c-9.89193216-9.89193216-26.00164972-9.89193216-36.03489436 0L549.16540116 812.00318521l-135.66077983-135.66077985c-9.89193216-9.89193216-26.00164972-9.89193216-36.03489436 0l0 0c-9.89193216 9.89193216-9.89193216 26.00164972 0 36.03489437L531.3599241 866.12618439c9.89193216 9.89193216 26.00164972 9.89193216 36.03489436 0l0 0c0.84788046-0.84788046 1.69575952-1.8370734 2.40232613-2.82626635l401.32980686-401.32980685C981.01888361 452.07817902 981.01888361 435.96846147 970.98563895 426.07652931z" p-id="4071"></path><path d="M655.71563861 244.6302368L293.95355904 244.6302368c-11.72900556 0-21.19699749 9.46799194-21.19699749 21.19699749s9.46799194 21.19699749 21.19699749 21.19699749l361.76207957 0c11.72900556 0 21.19699749-9.46799194 21.19699751-21.19699749S667.44464418 244.6302368 655.71563861 244.6302368z" p-id="4072"></path><path d="M674.08636979 417.03247759c0-11.72900556-9.46799194-21.19699749-21.1969975-21.1969975L291.1272927 395.83548009c-11.72900556 0-21.19699749 9.46799194-21.1969975 21.1969975s9.46799194 21.19699749 21.1969975 21.1969975l361.76207959 0C664.61837785 438.22947371 674.08636979 428.76148177 674.08636979 417.03247759z" p-id="4073"></path><path d="M293.95355904 558.34579011c-11.72900556 0-21.19699749 9.46799194-21.19699749 21.19699749s9.46799194 21.19699749 21.19699749 21.1969975l254.36396169 0c11.72900556 0 21.19699749-9.46799194 21.1969975-21.1969975s-9.46799194-21.19699749-21.1969975-21.19699749L293.95355904 558.34579011z" p-id="4074"></path></svg>