<svg t="1678847835605" class="icon" viewBox="0 0 1025 1024" version="1.1" xmlns="http://www.w3.org/2000/svg" p-id="3633" width="200" height="200"><path d="M270.3466373 961.37256552a838.17612862 838.17612862 0 0 1-158.05606992-22.15179755l-20.35570605-5.38827539v-20.35570606A2334.91921612 2334.91921612 0 0 1 62 638.07605878a59.86972354 59.86972354 0 0 1 43.70489824-54.48144901 83.8176126 83.8176126 0 0 1 87.40979648 40.11271523 33.52704521 33.52704521 0 0 0 28.73746671 0 46.0996875 46.0996875 0 0 0 26.34267831-50.88926513 59.86972354 59.86972354 0 0 0-41.31010898-59.86972354 28.73746758 28.73746758 0 0 0-31.73095371 5.98697226 63.46190654 63.46190654 0 0 1-67.05408955 26.34267832 59.86972354 59.86972354 0 0 1-43.10620136-50.29056738 2022.99795615 2022.99795615 0 0 1 0-208.94533505V254.90982852h31.13225595a1391.97107109 1391.97107109 0 0 0 179.60917061 7.78306377l-4.78957764-3.59218302a89.20588799 89.20588799 0 0 1-26.34267832-110.16029179A146.68082227 146.68082227 0 0 1 385.29650674 63.32671338a115.54856631 115.54856631 0 0 1 131.7133916 96.98895175A99.38374102 99.38374102 0 0 1 481.08806474 260.29810303a37.71792597 37.71792597 0 0 0-10.17785302 13.77003691H481.08806474l227.50494874-10.77655078h35.32313672l-4.19088077 35.32313759a1021.97617998 1021.97617998 0 0 0-8.38176064 214.33360958h3.59218301s4.19088076 0 6.58567002-8.38176153a102.97592403 102.97592403 0 0 1 113.15377705-47.29708125C881.61651406 459.06558506 960.04585214 482.41477724 960.04585214 605.7464082a136.50296924 136.50296924 0 0 1-85.01500722 136.50296924 105.37071328 105.37071328 0 0 1-119.73944707-38.91532061 47.29708125 47.29708125 0 0 0-23.34919219-6.58566914 975.2777956 975.2777956 0 0 0 16.1648253 195.17529815l4.78957763 28.13876983-27.54007207 5.98697314c-19.75700918 4.19088076-195.7739959 41.31010898-262.82808633 23.94788906a76.03454883 76.03454883 0 0 1-59.86972353-59.86972354 59.86972354 59.86972354 0 0 1 26.94137519-59.86972353 33.52704521 33.52704521 0 0 0 0-24.54658682c-5.38827539-14.36873379-24.54658682-19.15831143-40.11271435-20.95440293s-49.09317363 0-59.86972354 18.55961455a44.90229287 44.90229287 0 0 0 0 38.91531973 70.64627344 70.64627344 0 0 1 18.55961456 72.44236582A59.86972354 59.86972354 0 0 1 301.47889414 961.37256552a193.37920664 193.37920664 0 0 1-31.13225683 0z m-125.12772158-76.63324658a538.82751094 538.82751094 0 0 0 144.88473076 16.76352305v-8.9804584a10.17785302 10.17785302 0 0 0 0-7.78306465A94.59416338 94.59416338 0 0 1 275.13621582 781.76339492a109.56159404 109.56159404 0 0 1 123.93032695-59.86972354 94.59416338 94.59416338 0 0 1 92.79807187 70.04757657 82.62021797 82.62021797 0 0 1-28.73746757 85.6137041 20.95440293 20.95440293 0 0 0 16.1648253 13.17133916 718.43668154 718.43668154 0 0 0 207.14924355-18.55961368 833.98524785 833.98524785 0 0 1-11.97394454-179.6091706 59.86972354 59.86972354 0 0 1 46.09968662-53.88275127 96.39025488 96.39025488 0 0 1 85.01500723 28.73746758 45.50098974 45.50098974 0 0 0 52.08665977 17.96091679A76.6332457 76.6332457 0 0 0 900.17612862 605.7464082c0-34.12574209-7.78306377-77.23194346-44.30359513-89.80458573a59.86972354 59.86972354 0 0 0-56.8762374 7.78306376 67.65278731 67.65278731 0 0 1-68.85018193 46.0996875 59.86972354 59.86972354 0 0 1-59.86972353-46.0996875 860.32792617 860.32792617 0 0 1 3.592183-198.76748115L481.08806474 333.93786347a67.65278731 67.65278731 0 0 1-64.65930204-37.11922909 68.85018193 68.85018193 0 0 1 20.35570605-76.63324571c23.34919219-22.75049531 23.94788906-23.94788906 20.95440381-54.48144815C454.14668867 123.19643692 397.27045127 123.19643692 385.89520362 123.19643692A87.40979648 87.40979648 0 0 0 301.47889414 171.69091279c-10.7765499 31.13225596 0 38.9153206 4.78957763 42.50750362a68.85018193 68.85018193 0 0 1 37.71792599 50.88926513 59.86972354 59.86972354 0 0 1-26.94137609 48.49447588c-8.38176152 6.58567002-25.74398144 20.95440293-193.37920663 6.58566914A1636.23954287 1636.23954287 0 0 0 121.86972354 486.605658L127.25799893 482.41477724a86.81109873 86.81109873 0 0 1 96.98895175-27.54007294 119.73944708 119.73944708 0 0 1 83.8176126 113.7524748 104.77201641 104.77201641 0 0 1-73.0410627 112.55508018 79.62673184 79.62673184 0 0 1-93.39676875-28.13876983 25.74398144 25.74398144 0 0 0-19.75700829-11.37524765c0 45.50098974 14.36873379 176.01698672 23.34919219 243.07107715zM287.11016036 261.49549766z"  p-id="3634"></path></svg>