<svg t="1678847981902" class="icon" viewBox="0 0 1024 1024" version="1.1" xmlns="http://www.w3.org/2000/svg" p-id="3633" width="200" height="200"><path d="M534.1625 944.225h-375.75c-23.79375 0-46.40625-10.06875-62.04375-27.50625a67.10625 67.10625 0 0 1-17.49375-51.75l-0.16875-52.875a28.125 28.125 0 0 1 56.25 0v56.1375c-0.3375 4.78125 0.50625 7.7625 3.4875 11.08125a26.94375 26.94375 0 0 0 19.96875 8.6625h375.75a28.125 28.125 0 0 1 0 56.25z"  p-id="3634"></path><path d="M106.60625 883.025a28.125 28.125 0 0 1-28.125-28.125v-52.7625a402.13125 402.13125 0 0 1 244.29375-370.125 28.29375 28.29375 0 0 1 36.95625 14.79375 28.2375 28.2375 0 0 1-14.85 37.0125 345.76875 345.76875 0 0 0-210.15 318.375v52.7625a28.125 28.125 0 0 1-28.125 28.06875z"  p-id="3635"></path><path d="M466.94375 514.19375a217.40625 217.40625 0 0 1-217.18125-217.18125A217.4625 217.4625 0 0 1 466.94375 79.775a217.4625 217.4625 0 0 1 217.2375 217.2375 217.40625 217.40625 0 0 1-217.2375 217.18125z m0-378.16875a161.15625 161.15625 0 0 0-160.93125 160.9875 161.1 161.1 0 0 0 160.93125 160.93125 161.15625 161.15625 0 0 0 160.9875-160.93125 161.15625 161.15625 0 0 0-160.9875-160.9875zM746.28125 790.94375c-37.74375 0-68.45625-30.7125-68.45625-68.45625s30.7125-68.45625 68.45625-68.45625 68.45625 30.7125 68.45625 68.45625-30.7125 68.45625-68.45625 68.45625z m0-97.5375a29.19375 29.19375 0 1 0 0.05625 58.33125 29.19375 29.19375 0 0 0-0.05625-58.33125z"  p-id="3636"></path><path d="M795.5 906.0875a19.6875 19.6875 0 0 1-19.4625-16.875 30.9375 30.9375 0 0 0-30.375-26.55c-15.075 0-28.125 11.30625-30.43125 26.38125a19.575 19.575 0 0 1-25.25625 15.80625 191.19375 191.19375 0 0 1-74.1375-43.36875 19.6875 19.6875 0 0 1 1.125-29.64375 30.88125 30.88125 0 0 0 7.3125-39.43125 31.5 31.5 0 0 0-37.6875-13.21875 19.6875 19.6875 0 0 1-26.15625-14.00625c-3.2625-14.45625-4.95-28.8-4.95-42.75s1.6875-28.29375 4.95-42.75a19.4625 19.4625 0 0 1 9.84375-12.9375 19.8 19.8 0 0 1 16.25625-1.06875 30.7125 30.7125 0 1 0 30.375-52.70625 19.63125 19.63125 0 0 1-7.2-14.625 18.675 18.675 0 0 1 6.13125-14.90625 191.1375 191.1375 0 0 1 74.1375-43.3125 19.6875 19.6875 0 0 1 25.2 15.8625 31.05 31.05 0 0 0 30.43125 26.325 30.9375 30.9375 0 0 0 30.375-26.55 19.6875 19.6875 0 0 1 25.14375-16.0875 191.25 191.25 0 0 1 74.925 43.14375 19.63125 19.63125 0 0 1-1.29375 29.925 30.65625 30.65625 0 0 0-7.81875 39.6 31.5 31.5 0 0 0 38.475 12.99375 19.85625 19.85625 0 0 1 26.55 13.66875 188.38125 188.38125 0 0 1 0 86.85 19.85625 19.85625 0 0 1-26.6625 13.66875 31.1625 31.1625 0 0 0-38.3625 12.9375 30.76875 30.76875 0 0 0 7.875 39.7125 19.6875 19.6875 0 0 1 1.2375 29.925 191.925 191.925 0 0 1-74.98125 43.0875 17.2125 17.2125 0 0 1-5.56875 0.9z m-49.89375-82.74375c26.49375 0 50.11875 15.13125 62.04375 37.575 9.3375-4.1625 18.3375-9.3375 26.83125-15.4125a69.6375 69.6375 0 0 1-1.51875-72.5625 71.2125 71.2125 0 0 1 64.0125-34.93125 144.28125 144.28125 0 0 0 0-30.99375 71.4375 71.4375 0 0 1-63.95625-34.875 70.425 70.425 0 0 1 1.575-72.50625 146.19375 146.19375 0 0 0-26.94375-15.525c-11.86875 22.5-35.55 37.63125-62.04375 37.63125-26.2125 0-49.78125-14.9625-61.81875-37.18125a157.3875 157.3875 0 0 0-26.6625 15.6375c13.275 21.43125 14.2875 48.9375 1.125 71.8875-12.76875 22.1625-37.8 37.29375-62.6625 35.04375a129.88125 129.88125 0 0 0 0 30.76875 73.6875 73.6875 0 0 1 62.6625 34.93125c13.21875 23.0625 12.20625 50.56875-1.06875 72 8.325 6.13125 17.26875 11.3625 26.6625 15.6375 12.0375-22.1625 35.60625-37.125 61.7625-37.125z"  p-id="3637"></path></svg>