<svg t="1678851244684" class="icon" viewBox="0 0 1024 1024" version="1.1" xmlns="http://www.w3.org/2000/svg" p-id="3778" width="200" height="200"><path d="M642.92636445 973.03362333a38.25360555 38.25360555 0 0 1-38.83614778-38.83614778v-33.98163a138.0139611 138.0139611 0 0 1 33.98162888-82.76953998l53.39970446-62.86601558a9.27212999 9.27212999 0 0 0 0-14.56355556l-53.39970446-63.10873998a106.79940779 106.79940779 0 0 1-33.98162888-82.52681557v-33.98162887a38.35069667 38.35069667 0 0 1 38.83614778-38.83614891h247.58044444a38.3992411 38.3992411 0 0 1 38.83614777 38.83614891v33.98162887a138.69359445 138.69359445 0 0 1-33.98162887 87.38133333l-53.39970446 63.10874112a8.93231445 8.93231445 0 0 0 0 14.56355556l53.39970446 58.25422222a107.18776889 107.18776889 0 0 1 33.98162887 82.76954112v33.98162887a38.25360555 38.25360555 0 0 1-38.83614777 38.83614891z m38.83614776-72.81777778h179.61718557c0-4.8545189-4.8545189-9.70903666-4.8545189-14.56355556h-169.90814777a18.59280555 18.59280555 0 0 0-4.8545189 14.56355556z m67.96326002-92.2358511l-4.8545189 4.85451776v4.8545189h48.54518557l-4.8545189-4.8545189a102.38179555 102.38179555 0 0 1-19.41807445-48.54518442 86.1191589 86.1191589 0 0 1-19.41807332 43.69066666z m-53.39970446-169.9081489l53.39970446 63.10874112a71.7012389 71.7012389 0 0 1 19.41807332 43.69066666 86.41043001 86.41043001 0 0 1 19.41807445-48.54518556l53.39970333-58.25422222a43.69066667 43.69066667 0 0 0 14.56355555-33.98162888h-174.76266667a43.69066667 43.69066667 0 0 0 14.56355556 33.98162888z m-495.16088889 330.10726002a107.77031111 107.77031111 0 0 1-106.79940665-106.79940779v-699.05066667a107.77031111 107.77031111 0 0 1 106.79940665-106.79940778h543.70607445a107.72176555 107.72176555 0 0 1 106.79940779 106.79940778v213.59881444a35.92343666 35.92343666 0 0 1-38.83614891 38.8361489 38.30215111 38.30215111 0 0 1-38.83614776-38.8361489v-213.59881444a33.1563611 33.1563611 0 0 0-33.98163002-33.98163001h-543.70607331a33.25345223 33.25345223 0 0 0-34.22435555 33.98163001v703.90518556a33.44763221 33.44763221 0 0 0 34.22435555 34.22435556h296.12562887c24.27259221 0 43.69066667 4.8545189 43.69066667 29.12711111a38.05942557 38.05942557 0 0 1-38.83614777 38.83614777z m48.54518557-228.16237114a35.87489223 35.87489223 0 0 1-38.83614778-38.83614776 38.49633223 38.49633223 0 0 1 38.83614778-38.83614777h213.59881443a35.72925667 35.72925667 0 0 1 38.83614891 38.83614777 38.30215111 38.30215111 0 0 1-38.83614891 38.83614776z m4.85451889-199.03525888a35.92343666 35.92343666 0 0 1-38.83614891-38.83614776 38.44778667 38.44778667 0 0 1 38.83614891-38.83614891h300.98014777a38.83614777 38.83614777 0 1 1 0 77.67229667z m-4.85451889-203.88977777a35.7778011 35.7778011 0 0 1-38.83614778-38.83614777 38.54487666 38.54487666 0 0 1 38.83614778-38.83614891h441.76118556a35.82634667 35.82634667 0 0 1 38.83614777 38.83614891 38.25360555 38.25360555 0 0 1-38.83614777 38.83614777z"  p-id="3779"></path></svg>