<svg t="1678841931685" class="icon" viewBox="0 0 1024 1024" version="1.1" xmlns="http://www.w3.org/2000/svg" p-id="3446" width="200" height="200"><path d="M428.48 39.68C317.6 59.84 223.52 113.6 149.6 199.04 107.84 247.52 80 294.56 60.8 349.28c-36.96 106.08-37.44 215.52-1.92 320.64 45.12 132.48 158.4 247.2 290.4 293.28 108 37.44 217.44 37.44 325.44 0 132-46.08 245.28-160.8 290.4-293.28 35.52-105.12 35.04-214.56-1.92-320.64-37.44-106.56-123.36-206.4-225.6-261.12-89.76-48.48-207.84-66.72-309.12-48.48z m151.2 95.52c83.04 15.36 147.36 50.4 206.4 111.36 57.6 59.04 87.36 117.12 102.24 197.76 9.6 50.4 9.6 84.96 0.48 135.36-15.36 83.04-50.4 147.36-111.36 206.4-59.04 57.6-117.12 87.36-197.76 102.24-50.4 9.6-84.96 9.6-135.36 0-80.64-14.88-138.72-44.64-197.76-102.24-60.96-59.04-96-123.36-111.36-206.4-9.12-50.4-9.12-84.96 0.48-135.36 14.88-80.64 44.64-138.72 102.24-197.76 58.08-60 117.12-92.64 197.28-109.44 51.84-10.56 94.08-11.04 144.48-1.92z" p-id="3447"></path><path d="M462.30186667 308.8384L420.2496 389.12l-83.5584 12.56106667c-52.4288 7.64586667-87.38133333 15.29173333-92.29653333 20.20693333-7.09973333 7.09973333 0 15.83786667 57.344 73.728l64.98986666 64.98986667-14.7456 85.74293333c-8.192 46.96746667-13.1072 87.38133333-11.4688 90.112 6.5536 10.92266667 27.8528 3.2768 98.304-33.86026667L512 663.82506667l73.728 38.77546666c69.90506667 37.13706667 91.20426667 44.2368 97.75786667 34.4064 1.6384-2.73066667-3.82293333-43.14453333-11.4688-90.65813333l-14.19946667-85.74293333 64.98986667-65.536c57.344-57.344 63.8976-65.536 56.79786666-73.18186667-5.46133333-4.9152-39.3216-12.56106667-91.7504-20.20693333l-83.5584-12.01493334-42.05226666-80.82773333C536.576 259.14026667 516.9152 228.01066667 512 228.01066667c-4.9152 0-24.576 31.67573333-49.69813333 80.82773333z" p-id="3448"></path></svg>