<svg t="1678848859148" class="icon" viewBox="0 0 1024 1024" version="1.1" xmlns="http://www.w3.org/2000/svg" p-id="4062" width="200" height="200"><path d="M671.56857 656.089984a31.99774 31.99774 0 0 0-11.391195-43.836904 433.569379 433.569379 0 0 0-82.938143-36.669411 307.178306 307.178306 0 1 0-290.923453 4.223702A438.689018 438.689018 0 0 0 0 990.466368a31.99774 31.99774 0 0 0 63.99548 0 374.37356 374.37356 0 0 1 563.800182-322.985189 31.99774 31.99774 0 0 0 43.772908-11.391195zM427.873781 552.033333a243.182825 243.182825 0 1 1 243.182826-243.182826 243.438807 243.438807 0 0 1-243.182826 243.182826zM990.330058 608.157369a118.199652 118.199652 0 0 0-162.868497 0l-45.052819 45.052818a147.82956 147.82956 0 0 1 17.342776-1.663882 146.293668 146.293668 0 0 1 61.115683 13.631037l11.839164-11.775169a51.196384 51.196384 0 0 1 72.314893 72.378889l-108.60033 108.664325a52.66828 52.66828 0 0 1-72.314893 0 50.492434 50.492434 0 0 1-10.879232-16.318847l-46.7167 46.588709a116.087801 116.087801 0 0 0 12.287132 14.974943 115.25586 115.25586 0 0 0 162.868497 0l108.664326-108.664326a115.447846 115.447846 0 0 0 0-162.868497z"  p-id="4063"></path><path d="M800.263481 945.285559v0.063996a152.309243 152.309243 0 0 1-61.819634-12.863092l-11.071218 11.007223a52.66828 52.66828 0 0 1-72.442883 0 51.516362 51.516362 0 0 1 0-72.378888l108.664325-108.600331a50.876407 50.876407 0 0 1 83.194125 16.254852l46.652705-46.588709a113.335996 113.335996 0 0 0-175.091634-14.910947l-108.664326 108.60033a115.191865 115.191865 0 0 0 162.932493 162.868497l45.116814-45.116813a147.2536 147.2536 0 0 1-17.470767 1.727878z"  p-id="4064"></path></svg>