<svg t="1678842405133" class="icon" viewBox="0 0 1024 1024" version="1.1" xmlns="http://www.w3.org/2000/svg" p-id="3615" width="200" height="200"><path d="M642.5 319.3c209.5 0 255.3 473.6 255.3 505.3 0 166.9-184.2 131-182.5 133H235.8c-62.4 0-113.2-65.9-113.2-133 0 0 60.1-505.3 300.4-505.3h219.5z m46.1 460.2c4.7 9 8.2 0 8.2 0C745.7 543 509 531.7 509 531.6l-0.1-52.7c-4.6-22.2-23.5-8.7-23.5-8.7L359.2 578.7c-28.1 19.7-1.6 34.1-1.6 34.1l124.9 107.8c25 18.7 27.1-10 27.1-10v-48.8c126.9-39.6 179 117.7 179 117.7zM435.7 294.3h201.7c48.2 0 86.3-86.9 102-127.3 6.7-15.9 9-34.3 5.6-51.4-4.5-28.2-20.2-47.7-71.7-49-69.5-3.7-85.2 51.4-135.6 51.4-51.5 0-76.2-44.1-139-52.6-44.8-7.3-62.8 14.7-69.5 42.8-4.5 19.6-3.4 41.6 4.5 60 15.7 40.4 54.9 126.1 102 126.1z m0 0" p-id="3616"></path></svg>