<svg t="1678851366441" class="icon" viewBox="0 0 1024 1024" version="1.1" xmlns="http://www.w3.org/2000/svg" p-id="4223" width="200" height="200"><path d="M615.40314741 117.27871333c-12.84236052-54.17409772-58.89772385-104.51024706-116.61454115-104.51024707-57.71681731 0-107.16728767 50.33615056-119.86203565 104.51024707l-77.64461826 0 0 236.47657681 391.76581454 0L693.04776567 117.27871333 615.40314741 117.27871333zM640.64502958 300.90971273L351.1752616 300.90971273l-0.8856802-132.5567824 80.1540451 0 0-32.62254892c0-36.60810983 32.03209504-71.14963171 68.34497855-71.14963172 36.31288229 0 63.47373742 34.68913565 63.47373741 71.14963172l0 32.62254892 78.53029847 0L640.79264214 300.90971273z"  p-id="4224"></path><path d="M776.59691903 143.11104937l-135.95188945 0 1.62374664 157.79866457L351.1752616 300.90971273 351.1752616 143.11104937l-107.90535411 0c-84.73005989 0-153.81310365 65.39271161-153.81310365 150.56561038L89.45680384 830.25116334c0 85.32051254 68.9354312 154.69878386 153.81310365 154.69878386l533.4746241 0c84.73005989 0 153.81310365-69.37827131 153.81310365-154.69878386L930.55763646 293.67665975C930.41002269 208.3561472 861.47459148 143.11104937 776.59691903 143.11104937zM876.38353874 830.25116334c0 53.87887017-46.05536332 102.00082022-99.78662093 102.00082023L243.26990749 932.25198478c-53.58364384 0-103.9197944-47.97433629-103.9197944-102.00082022L139.3501143 293.67665975c0-53.87887017 50.1885368-97.86764675 103.9197944-97.86764674l58.01204365 0 0 157.79866457 391.76581454 0L693.04776567 195.80901301l83.54915214 0c53.73125761 0 99.78662093 43.84116281 99.78662093 97.86764674L876.38353874 830.25116334z"  p-id="4225"></path><path d="M685.66709893 794.38112117l-6.49498655 6.34737397c-10.18532113 9.89009359-26.71801503 9.59486725-36.46049606-0.73806643l-308.51188873-320.46856905c-9.89009359-10.18532113-9.59486725-26.71801503 0.73806644-36.46049606l6.49498655-6.34737399c10.18532113-9.89009359 26.71801503-9.59486725 36.46049606 0.73806644l308.51188873 320.46856905C696.14764639 768.10594623 695.85242006 784.49102758 685.66709893 794.38112117z"  p-id="4226"></path><path d="M333.31404739 795.26680136l-6.34737398-6.49498654c-9.89009359-10.18532113-9.59486725-26.71801503 0.73806643-36.46049606l320.46856906-308.51188873c10.18532113-9.89009359 26.71801503-9.59486725 36.46049605 0.73806643l6.34737398 6.49498655c9.89009359 10.18532113 9.59486725 26.71801503-0.73806643 36.46049605l-320.46856904 308.51188873C359.58922233 805.74734882 343.20414098 805.45212249 333.31404739 795.26680136z"  p-id="4227"></path></svg>