<svg t="1678847460248" class="icon" viewBox="0 0 1024 1024" version="1.1" xmlns="http://www.w3.org/2000/svg" p-id="3633" width="200" height="200"><path d="M154.625 931.15625c-4.6875 0-9.375-0.9375-13.78125-2.90625-12.1875-5.4375-19.96875-17.53125-19.96875-30.84375V183.6875c0-48.5625 38.71875-88.125 86.25-88.125H818.5625c47.53125 0 86.25 39.46875 86.25 88.125v713.71875c0 13.3125-7.78125 25.3125-19.875 30.75-12.09375 5.4375-26.34375 3.28125-36.28125-5.53125L691.71875 783.40625 535.34375 922.625c-12.75 11.34375-31.96875 11.4375-44.8125 0.09375L332.75 783.3125 177.21875 922.53125c-6.375 5.625-14.4375 8.625-22.59375 8.625z m177.9375-226.6875c7.96875 0 15.9375 2.8125 22.3125 8.4375L512.84375 852.3125l156.375-139.3125c12.75-11.34375 32.0625-11.4375 44.8125 0L837.3125 822.3125V183.6875c0-11.34375-8.4375-20.625-18.75-20.625H207.21875c-10.3125 0-18.75 9.1875-18.75 20.625v638.15625l121.6875-108.84375c6.375-5.71875 14.34375-8.53125 22.40625-8.53125z" p-id="3634"></path><path d="M704.1 372.4H320.2c-19.9 0-36-16.1-36-36s16.1-36 36-36h383.9c19.9 0 36 16.1 36 36s-16.1 36-36 36zM704.1 580.8H320.2c-19.9 0-36-16.1-36-36s16.1-36 36-36h383.9c19.9 0 36 16.1 36 36s-16.1 36-36 36z" p-id="3635"></path></svg>