<svg t="1678845612476" class="icon" viewBox="0 0 1024 1024" version="1.1" xmlns="http://www.w3.org/2000/svg" p-id="17717" width="200" height="200"><path d="M0 959.993438h1023.993v63.999562H0zM671.995406 725.325042h223.998469v63.999562H671.995406zM127.999125 725.325042h223.998469v63.999562H127.999125zM287.998031 106.669271h447.996938v63.999562H287.998031z" p-id="17718"></path><path d="M352.000594 106.662271v917.323729h-63.999563v-917.323729zM735.997969 106.662271v917.323729h-63.999563v-917.323729zM543.994281 0.002v255.99825h-63.999562v-255.99825z" p-id="17719"></path><path d="M415.997156 255.99825h191.998688v63.999563H415.997156zM415.997156 373.327448h191.998688v63.999562H415.997156zM415.997156 490.666646h191.998688v63.999562H415.997156zM415.997156 607.995844h191.998688v63.999562H415.997156zM415.997156 725.325042h191.998688v63.999562H415.997156zM415.997156 842.66424h191.998688V959.993438H415.997156zM191.995688 725.332042v298.667958h-63.999563v-298.667958zM895.990875 725.332042v298.667958h-63.999562v-298.667958z" p-id="17720"></path></svg>