<svg t="1678842262990" class="icon" viewBox="0 0 1024 1024" version="1.1" xmlns="http://www.w3.org/2000/svg" p-id="3476" width="200" height="200"><path d="M184.32 560.54518557a36.40888889 36.40888889 0 0 1 3.49525333 72.64786886L184.32 633.36296334h-24.27259221a12.13629667 12.13629667 0 0 0-11.94211556 9.95176221L147.91111111 645.49925888v218.45333333a60.6814811 60.6814811 0 0 0 56.70077668 60.5601189L208.59259221 924.63407445h606.81481558a60.6814811 60.6814811 0 0 0 60.56011776-56.70077667L876.08888889 863.95259221v-218.45333333a12.13629667 12.13629667 0 0 0-9.95176334-11.94211555L863.95259221 633.36296334h-24.27259221a36.40888889 36.40888889 0 0 1-3.49525333-72.64787001L839.68 560.54518557h24.27259221a84.95407445 84.95407445 0 0 1 84.83271112 80.29373553L948.90666667 645.49925888v218.45333333a133.49925888 133.49925888 0 0 1-128.13501668 133.40216889L815.40740779 997.45185223h-606.81481558a133.49925888 133.49925888 0 0 1-133.40216888-128.13501668L75.09333333 863.95259221v-218.45333333a84.95407445 84.95407445 0 0 1 80.29373668-84.83271111L160.04740779 560.54518557h24.27259221zM512 26.54814777c174.13157888 0 315.54370333 141.02376334 315.54370333 315.30097778 0 101.41089223-76.21594112 247.26490112-227.67691776 442.39227335a112.96464555 112.96464555 0 0 1-18.44717114 18.78698667 110.68302222 110.68302222 0 0 1-157.33494442-18.85980445l-15.48591446-20.14625223C267.47790222 579.06517333 196.45629667 439.78903666 196.45629667 341.89767111 196.45629667 167.57191111 337.86842112 26.54814777 512 26.54814777z m0 72.81777778c-134.17889223 0-242.72592555 109.90629888-242.72592555 245.17745778 0 78.88592555 65.46318222 207.55493888 197.33617778 381.51661112l7.28177778 9.58767332a47.50146333 47.50146333 0 0 0 68.20598442 8.27695445c2.96125667-2.42725888 5.65551445-5.19433443 8.00995556-8.2526811C686.81121223 556.78293333 754.72592555 424.86139221 754.72592555 344.51911111 754.72592555 209.27222557 646.17889223 99.36592555 512 99.36592555z m0 121.36296334a121.36296334 121.36296334 0 1 1 0 242.72592554 121.36296334 121.36296334 0 0 1 0-242.72592554z m0 72.81777778a48.54518557 48.54518557 0 1 0 0 97.09036999 48.54518557 48.54518557 0 0 0 0-97.09036999z"  p-id="3477"></path></svg>