<svg t="1678848811252" class="icon" viewBox="0 0 1024 1024" version="1.1" xmlns="http://www.w3.org/2000/svg" p-id="3918" width="200" height="200"><path d="M702.3 407.8c-25.3-26.2-54.4-46.4-87.3-60.7-34.2-14.2-69.8-21.4-106.9-21.4-37.1 0-72.7 7.1-106.9 21.4-32.9 14.2-62 34.4-87.3 60.4s-44.9 55.7-58.6 89.1c-14.7 34.7-22 71.2-22 109.4 0 41.8 8.7 81.4 26 118.8 4.4 10.2 0.4 27.2-9.3 51.4-11.6 25.5-9 31.3-27.5 45.1L200.4 836l30.5 10.4c16.9 5.3 33.2 5.7 53.3 8 31.8 3.6 42.9 1.7 75.2-7.6 3.1-1.8 5.5-2 7.3-0.6h0.7l0.7 0.6c42.6 26.2 89.5 39.4 140.6 39.4 36.9 0 72.4-7.3 106.6-22 32.9-14.2 62-34.3 87.3-60 25.3-25.8 45.1-55.6 59.3-89.4 14.2-34.7 21.3-71 21.3-109.1 0-38-7.1-74.4-21.3-109.1-14.5-33.4-34.3-63-59.6-88.8zM421.5 633.3c-7.3 7.5-16.2 11.3-26.7 11.3-10.4 0-19.3-3.8-26.7-11.3-7.3-7.6-11-16.7-11-27.4s3.7-19.8 11-27.4c7.3-7.5 16.2-11.3 26.7-11.3 10.4 0 19.3 3.8 26.7 11.3 7.3 7.5 11 16.7 11 27.4s-3.7 19.8-11 27.4z m121.3 0c-7.3 7.5-16.2 11.3-26.7 11.3-10.4 0-19.3-3.8-26.7-11.3-7.3-7.6-11-16.7-11-27.4s3.7-19.8 11-27.4c7.3-7.5 16.2-11.3 26.7-11.3 10.4 0 19.3 3.8 26.7 11.3s11 16.7 11 27.4-3.7 19.8-11 27.4z m120.9 0c-7.5 7.5-16.5 11.3-27 11.3-10.4 0-19.3-3.8-26.7-11.3-7.3-7.6-11-16.7-11-27.4s3.7-19.8 11-27.4c7.3-7.5 16.2-11.3 26.7-11.3 10.4 0 19.4 3.8 27 11.3 7.5 7.5 11.3 16.7 11.3 27.4s-3.8 19.8-11.3 27.4z m328-140.9c-13.1-21.8-30.7-39.5-52.6-52.6-31.5-88.1-86.4-161.1-163.4-217-77.6-56.3-166.3-84.9-263.7-84.9-97.4 0-186.1 28.6-263.7 84.9-77 55.9-131.7 128.8-162.6 216.9-21.9 12.6-39.7 30.2-53 52.3C19 514.7 12 540 12 566.9c0 41.6 12.2 76.8 36.2 104.8 23.8 27.7 55.2 42 93.5 42.6l0.3 0.3 2.6-0.2c1.5-0.1 4.9-1 5.3-5.9v-0.2-0.5l0.3-13.3c0.2-9.4 0.5-23.6 0.8-42.5 0.8-38.6 1.4-81.8 1.9-128.2 0.5-45.4 0.7-77.6 0.7-95.6 31-69 79.2-125.3 143.3-167.4 64.5-42.3 136.8-63.7 215-63.7 78.2 0 150.5 21.4 215 63.7 64.1 42.1 112.3 98.4 143.3 167.4 0.1 18 2.6 109.9 7.6 280.5l0.2 5.7h5.7c39.4 0 71-14.2 94-42.3 22.7-27.7 34.2-63.1 34.2-105.1 0.1-27-6.8-52.1-20.2-74.6z" p-id="3919"></path></svg>