<svg t="1678847178451" class="icon" viewBox="0 0 1024 1024" version="1.1" xmlns="http://www.w3.org/2000/svg" p-id="3779" width="200" height="200"><path d="M331.03744 539.3252768c-3.92076373 4.95334827-19.71515413 22.61206507-22.91550933 27.05130453-15.63830187 21.55765013-19.76754667 55.5248672-13.72813014 76.27369707 8.56848427 29.21034347 37.83012907 32.520944 59.56024107 34.67889173 50.26807467 5.05267627 101.36352747 1.6678528 152.15007787 1.6678528 49.54439253 0 99.038576-0.7367808 148.5349408 0.29471254 29.26273707 0.51520107 53.88102827-7.5293504 66.06355626-35.09585494 13.004448-29.40572693 6.34504427-57.16870613-15.74418026-80.81117226-7.79349973-8.26504-15.89590187-16.40782827-24.00048747-24.47639254-18.52648107-18.565776-18.1684608-37.15665707-1.752992-57.16870613 15.27591467-18.59088107 30.91530773-37.2789088 43.76694293-57.5125376 69.3643328-109.08826133 45.15754773-251.3371008-55.68968746-332.14827307C565.81717333 10.6301728 418.3115424 18.158432 327.01189013 109.2965376c-99.19575573 99.009104-83.14485653 262.39863147 5.16182934 373.05650773C352.55907093 507.83473493 343.269088 523.94785067 331.03744 539.3252768L331.03744 539.3252768zM922.90901333 802.9496928c-0.203024-53.24466773-22.91332693-78.55498667-75.34808213-78.65322453-227.34643733-0.4180544-454.64266453-0.29471253-681.9869184 0.31872533-52.07455147 0.09823787-74.1124736 23.3237408-74.7848544 74.53271147-0.3099936 23.93717867-0.0523936 47.87326613-0.0523936 74.5086976l832.17224853 0C922.90901333 848.2720608 923.01379947 825.56175787 922.90901333 802.9496928L922.90901333 802.9496928zM137.3416768 986.88939093L874.5008992 986.88939093l0-75.85673386L137.3416768 911.03265813 137.3416768 986.88939093 137.3416768 986.88939093zM137.3416768 986.88939093"  p-id="3780"></path></svg>