<svg t="1678845832802" class="icon" viewBox="0 0 1024 1024" version="1.1" xmlns="http://www.w3.org/2000/svg" p-id="3717" width="200" height="200"><path d="M640 411.733333c-30.208 6.122667-58.88 16.512-85.333333 30.506667V96.128A10.581333 10.581333 0 0 0 544 85.333333h-448a10.666667 10.666667 0 0 0-10.666667 10.794667v831.744c0 6.186667 4.778667 10.794667 10.666667 10.794667h369.493333a320.597333 320.597333 0 0 0 123.392 85.333333H42.496C19.029333 1024 0 1004.906667 0 981.312V42.666667A42.666667 42.666667 0 0 1 42.496 0h555.008C620.970667 0 640 19.093333 640 42.688v369.066667zM420.906667 576a317.76 317.76 0 0 0-30.506667 85.333333h-27.797333A21.290667 21.290667 0 0 1 341.333333 639.786667v-42.24c0-11.904 9.664-21.546667 21.269334-21.546667h58.304z m-34.090667 192a317.781333 317.781333 0 0 0 23.808 85.333333h-48.021333A21.290667 21.290667 0 0 1 341.333333 831.786667v-42.24c0-11.904 9.664-21.546667 21.269334-21.546667h24.213333zM128 213.546667C128 201.621333 137.664 192 149.269333 192h128.128c11.733333 0 21.269333 9.450667 21.269334 21.546667v42.24c0 11.904-9.664 21.546667-21.269334 21.546666H149.269333A21.290667 21.290667 0 0 1 128 255.786667v-42.24z m0 192c0-11.904 9.664-21.546667 21.269333-21.546667h128.128c11.733333 0 21.269333 9.450667 21.269334 21.546667v42.24c0 11.904-9.664 21.546667-21.269334 21.546666H149.269333A21.290667 21.290667 0 0 1 128 447.786667v-42.24z m0 192c0-11.904 9.664-21.546667 21.269333-21.546667h128.128c11.733333 0 21.269333 9.450667 21.269334 21.546667v42.24c0 11.904-9.664 21.546667-21.269334 21.546666H149.269333A21.290667 21.290667 0 0 1 128 639.786667v-42.24z m0 192c0-11.904 9.664-21.546667 21.269333-21.546667h128.128c11.733333 0 21.269333 9.450667 21.269334 21.546667v42.24c0 11.904-9.664 21.546667-21.269334 21.546666H149.269333A21.290667 21.290667 0 0 1 128 831.786667v-42.24z m213.333333-576c0-11.904 9.664-21.546667 21.269334-21.546667h128.128c11.733333 0 21.269333 9.450667 21.269333 21.546667v42.24c0 11.904-9.664 21.546667-21.269333 21.546666h-128.128A21.290667 21.290667 0 0 1 341.333333 255.786667v-42.24z m0 192c0-11.904 9.664-21.546667 21.269334-21.546667h128.128c11.733333 0 21.269333 9.450667 21.269333 21.546667v42.24c0 11.904-9.664 21.546667-21.269333 21.546666h-128.128A21.290667 21.290667 0 0 1 341.333333 447.786667v-42.24zM725.333333 1024c-164.949333 0-298.666667-133.717333-298.666666-298.666667s133.717333-298.666667 298.666666-298.666666 298.666667 133.717333 298.666667 298.666666-133.717333 298.666667-298.666667 298.666667z m0-64c129.6 0 234.666667-105.066667 234.666667-234.666667s-105.066667-234.666667-234.666667-234.666666-234.666667 105.066667-234.666666 234.666666 105.066667 234.666667 234.666666 234.666667z m-144.853333-206.464v-42.410667h140.970667v-41.429333l2.645333-1.536a490.666667 490.666667 0 0 0 66.026667-46.037333H616.32v-41.045334h237.312v35.712l-1.6 3.797334a633.216 633.216 0 0 1-87.488 71.381333v19.157333h126.976v42.410667h-126.976v98.773333c0 25.450667-13.397333 39.125333-38.442667 39.125334h-64.106666L650.026667 849.066667l7.338666 0.298666c17.002667 0.682667 35.477333 1.024 55.424 1.024 6.4 0 8.661333-2.197333 8.661334-8.32v-88.533333H580.48z" p-id="3718"></path></svg>