<svg t="1678874629445" class="icon" viewBox="0 0 1024 1024" version="1.1" xmlns="http://www.w3.org/2000/svg" p-id="3805" width="200" height="200"><path d="M817.53174471 58.89089232c41.50807515 0 75.74602335 31.62815905 79.84712059 72.07989097l0.37282702 8.20219449v295.15472592a38.83614815 38.83614815 0 0 1-77.23733143 5.71668101l-0.43496486-5.71668101V139.17297778a2.60978915 2.60978915 0 0 0-1.24275674-2.23696213l-1.30489458-0.37282703H175.39933677a2.60978915 2.60978915 0 0 0-2.23696214 1.30489458L172.85168545 139.17297778v745.65404444c0 0.93206755 0.4971027 1.80199728 1.24275674 2.23696213l1.30489458 0.37282703h372.82702222a38.83614815 38.83614815 0 0 1 5.77881884 77.23733144l-5.77881884 0.43496486h-372.82702222a80.28208545 80.28208545 0 0 1-79.84712059-72.07989097L95.17938915 884.82702222V139.17297778c0-41.57021298 31.56602122-75.74602335 72.07989097-79.8471206l8.14005665-0.43496486h642.13240794z"  p-id="3806"></path><path d="M600.04931508 473.16385185a38.83614815 38.83614815 0 0 1 5.71668101 77.23733144l-5.71668101 0.43496486h-310.68918518a38.83614815 38.83614815 0 0 1-5.77881885-77.23733144l5.77881885-0.43496486h310.68918518zM703.57095158 266.05844101a38.83614815 38.83614815 0 0 1 5.77881885 77.23733144l-5.77881885 0.43496485H289.3601299a38.83614815 38.83614815 0 0 1-5.77881885-77.29946927l5.77881885-0.37282702h414.21082168zM522.37701878 680.2692627a38.83614815 38.83614815 0 0 1 5.71668101 77.29946927l-5.71668101 0.37282702h-233.01688888a38.83614815 38.83614815 0 0 1-5.77881885-77.23733144l5.77881885-0.43496485h233.01688888zM854.37948208 575.2563181l-207.54037571 302.61126638-7.45654045 125.51843081 114.33362016-52.44433446 207.29182435-302.4869907zM927.45357843 468.50351408l-48.77820208 71.1478234 106.75280403 73.26050987 48.77820207-71.20996125z"  p-id="3807"></path><path d="M-464.24134583-464.24134583h1952.48269166v1952.48269166H-464.24134583z"  fill-opacity="0" p-id="3808"></path></svg>