<svg t="1678847115458" class="icon" viewBox="0 0 1024 1024" version="1.1" xmlns="http://www.w3.org/2000/svg" p-id="3633" width="200" height="200"><path d="M752 32H176a96 96 0 0 0-96 96v768a96 96 0 0 0 96 96h265.44a12 12 0 0 0 9.12-19.68 348 348 0 0 1-43.68-63.12 24 24 0 0 0-21.12-13.2H200a24 24 0 0 1-24-24V152a24 24 0 0 1 24-24h528a24 24 0 0 1 24 24v247.2a24 24 0 0 0 19.92 24 353.52 353.52 0 0 1 59.28 16.8 11.52 11.52 0 0 0 4.8 0 11.76 11.76 0 0 0 12-11.76V128a96 96 0 0 0-96-96z"  p-id="3634"></path><path d="M704 512a240 240 0 1 0 240 240 240 240 0 0 0-240-240z m0 384a144 144 0 1 1 144-144 144 144 0 0 1-144 144z"  p-id="3635"></path><path d="M704 656a13.68 13.68 0 0 0-12.48 8.16l-22.08 46.8-49.44 7.44a14.64 14.64 0 0 0-7.68 24l35.76 36.48-8.64 51.36a14.64 14.64 0 0 0 13.92 17.04 12.96 12.96 0 0 0 6.48-1.68l44.16-24 44.16 24a12.96 12.96 0 0 0 6.48 1.68 14.64 14.64 0 0 0 13.92-17.04l-8.64-51.36 35.76-36.48a14.64 14.64 0 0 0-7.68-24l-49.44-7.44-22.08-46.8A13.68 13.68 0 0 0 704 656zM608 224H320a48 48 0 0 0 0 96h288a48 48 0 0 0 0-96zM512 416h-192a48 48 0 0 0 0 96h192a48 48 0 0 0 0-96zM368 608h-48a48 48 0 0 0 0 96h48a48 48 0 0 0 0-96z" p-id="3636"></path></svg>