<svg t="1678841887661" class="icon" viewBox="0 0 1024 1024" version="1.1" xmlns="http://www.w3.org/2000/svg" p-id="3446" width="200" height="200"><path d="M507.8 419.9m-250.3 0a250.3 250.3 0 1 0 500.6 0 250.3 250.3 0 1 0-500.6 0Z" p-id="3447"></path><path d="M958.3 775.2l-144-186c5.9-10.7 11.3-21.7 16.1-33.1 18.3-43.2 27.5-89 27.5-136.3s-9.3-93.1-27.5-136.3c-17.6-41.7-42.9-79.1-75-111.3-32.1-32.1-69.6-57.4-111.3-75-43.2-18.3-89-27.5-136.3-27.5-47.2 0-93.1 9.3-136.3 27.5-41.7 17.6-79.1 42.9-111.3 75s-57.4 69.6-75 111.3c-18.3 43.2-27.5 89-27.5 136.3s9.3 93.1 27.5 136.3c5.1 12 10.8 23.6 17.1 34.9-47.6 61.4-95.1 122.8-142.6 184.2-7.3 9.5 0.7 23.1 12.5 21.1 45.7-7.6 92.9 4.8 128.4 35.2 38.6 33.1 50.1 76.2 53 106.8 1.1 12 16.2 16.4 23.6 6.9l144.1-186.1c28.1 7.1 57 10.7 86.4 10.7 30.2 0 59.7-3.8 88.4-11.3l144.5 186.6c7.4 9.5 22.5 5 23.6-6.9 2.8-30.6 14.4-73.8 53-106.8 35.5-30.4 82.8-42.8 128.4-35.2 12 2.1 20-11.5 12.7-21zM205.5 419.9c0-166.7 135.6-302.4 302.4-302.4s302.4 135.6 302.4 302.4-135.7 302.3-302.5 302.3-302.3-135.6-302.3-302.3z" p-id="3448"></path></svg>