<svg t="1736238914421" class="icon" viewBox="0 0 1549 1024" version="1.1" xmlns="http://www.w3.org/2000/svg" p-id="5477" width="200" height="200"><path d="M855.07933107 937.10500334c-21.2291616 21.2291616-47.15790879 31.76271466-77.13802223 31.76271595-30.14216893 0-56.39502449-10.53355306-77.62418737-31.76271595-22.0394351-21.71532544-32.73504364-47.15790879-32.73504235-77.62418607 0-30.14216893 10.53355306-56.39502449 32.73504235-77.62418608 21.55327126-22.0394351 47.96818229-33.05915202 77.62418737-33.05915201 30.14216893 0 55.58475097 10.53355306 77.13802223 33.05915201 22.0394351 21.2291616 32.57298817 47.96818229 32.57298816 77.62418608 0.64821804 30.62833277-10.04738921 56.07091481-32.57298816 77.62418607z m-156.05864697-734.10764852c20.74299775-22.0394351 47.15790879-33.54531586 79.24473311-33.54531717 32.2488785 0 58.50173535 10.53355306 79.24473309 33.54531717 19.93272423 22.0394351 30.4662773 50.07489316 30.46627859 83.62020902 0 28.35956643-42.78243286 240.4891282-57.69146313 394.92722684h-103.55293325c-12.31615426-154.43809994-59.31200886-366.40560623-59.31200758-394.92722684 0.32410966-32.73504364 10.85766273-60.77050041 31.60065917-83.62020902z m783.85843333 720.98122074L906.12655192-82.54297129c-70.81788961-122.5133298-185.71465074-122.5133298-256.20843199 0l-576.91462098 1006.52154685c-70.33172577 122.5133298-12.64026393 223.47338835 128.50935275 223.47338834h1153.66718648c140.50139735 0 198.51696885-100.4738947 127.69907925-223.47338834z m0 0" p-id="5478"></path></svg>