<svg t="1673408508657" class="icon" viewBox="0 0 1024 1024" version="1.1" xmlns="http://www.w3.org/2000/svg" p-id="22518" width="200" height="200"><path d="M512 960C264.576 960 64 759.424 64 512S264.576 64 512 64s448 200.576 448 448-200.576 448-448 448z m0-64c212.064 0 384-171.936 384-384S724.064 128 512 128 128 299.936 128 512s171.936 384 384 384z m-32-316.128v-64h-128a32 32 0 0 1 0-64h108.192l-109.248-109.248a32 32 0 0 1 45.248-45.248l121.12 121.088 121.088-121.088a32 32 0 1 1 45.248 45.248l-109.248 109.248H672a32 32 0 0 1 0 64h-128v64h128a32 32 0 0 1 0 64h-128v96a32 32 0 0 1-64 0v-96h-128a32 32 0 0 1 0-64h128z"  p-id="22519"></path></svg>