<svg t="1673408208832" class="icon" viewBox="0 0 1025 1024" version="1.1" xmlns="http://www.w3.org/2000/svg" p-id="20305" width="200" height="200"><path d="M672 898.5c-17.7 0-32 14.3-32 32L640 960 64 960 64 798.5c0-157.5 123.2-283.9 280.5-287.9 5-0.1 10-0.1 14.9 0 59.4 1.5 116 21 163.7 56.2 14.2 10.5 34.2 7.5 44.8-6.7 10.5-14.2 7.5-34.2-6.7-44.8-26-19.3-54.2-34.6-83.9-46 75.4-43.4 126.1-124.8 126.1-218C603.4 112.6 490.9 0 352 0S100.6 112.6 100.6 251.4c0 93.2 50.7 174.6 126.1 218-47.2 17.9-90.3 46.1-126.5 83.2C35.6 618.7 0 706.1 0 798.5l0 169.7C0 999 25 1024 55.7 1024l592.5 0c30.7 0 55.7-25 55.7-55.7l0-37.8C704 912.8 689.7 898.5 672 898.5zM164.6 251.4c0-50.1 19.5-97.1 54.9-132.5C254.9 83.5 301.9 64 352 64c50.1 0 97.1 19.5 132.5 54.9 35.4 35.4 54.9 82.5 54.9 132.5 0 50.1-19.5 97.1-54.9 132.5-35.4 35.4-82.5 54.9-132.5 54.9-50.1 0-97.1-19.5-132.5-54.9C184.1 348.6 164.6 301.5 164.6 251.4z" p-id="20306"></path><path d="M877.3 640l137.4-137.4c12.5-12.5 12.5-32.8 0-45.3-12.5-12.5-32.8-12.5-45.3 0L832 594.7 694.6 457.4c-12.5-12.5-32.8-12.5-45.3 0-12.5 12.5-12.5 32.8 0 45.3L786.7 640 649.4 777.4c-12.5 12.5-12.5 32.8 0 45.3 6.2 6.2 14.4 9.4 22.6 9.4s16.4-3.1 22.6-9.4L832 685.3l137.4 137.4c6.2 6.2 14.4 9.4 22.6 9.4s16.4-3.1 22.6-9.4c12.5-12.5 12.5-32.8 0-45.3L877.3 640z" p-id="20307"></path></svg>