<svg t="1676628518975" class="icon" viewBox="0 0 1024 1024" version="1.1" xmlns="http://www.w3.org/2000/svg" p-id="3234" width="200" height="200"><path d="M332 385.96484375h90c19.77539063 0 36.03515625-16.171875 36.03515625-36.03515625 0-19.77539063-16.171875-36.03515625-36.03515625-36.03515625H332c-19.77539063 0-36.03515625 16.171875-36.03515625 36.03515625s16.25976563 36.03515625 36.03515625 36.03515625zM692 493.98242187H332c-19.77539063 0-36.03515625 16.171875-36.03515625 36.03515626 0 19.77539063 16.171875 36.03515625 36.03515625 36.03515625h360c19.77539063 0 36.03515625-16.171875 36.03515625-36.03515625 0-19.77539063-16.25976563-36.03515625-36.03515625-36.03515625zM692 673.98242188H332c-19.77539063 0-36.03515625 16.171875-36.03515625 36.03515624 0 19.77539063 16.171875 36.03515625 36.03515625 36.03515625h360c19.77539063 0 36.03515625-16.171875 36.03515625-36.03515625 0-19.77539063-16.25976563-36.03515625-36.03515625-36.03515625z" p-id="3235"></path><path d="M908.03515625 350.01757812c0-1.0546875-0.26367188-2.02148438-0.26367188-2.98828124-1.49414063-25.3125-13.79882813-50.44921875-33.57421875-68.02734375l-192.12890624-170.50781251c-21.53320313-19.16015625-47.19726563-28.4765625-78.48632813-28.47656249H229.95898437c-30.84960938-1.49414063-60.90820313 9.66796875-82.70507812 30.5859375-20.21484375 19.24804688-31.2890625 44.56054688-31.2890625 71.27929687v658.30078125c0 57.21679688 50.44921875 103.79882813 112.32421875 103.79882813h567.24609375c61.96289063 0 112.32421875-46.58203125 112.32421875-103.79882813V352.30273437c0-0.52734375-0.08789063-0.96679688-0.08789063-1.49414062 0.17578125-0.26367188 0.26367188-0.52734375 0.26367188-0.79101562z m-102.91992188-36.03515624H638.03515625V165.7109375l167.08007813 148.27148438z m-9.49218749 558.01757812H228.37695312c-21.09375 0-40.34179688-15.1171875-40.34179687-31.72851563v-658.30078125c0-9.140625 5.625-15.90820313 9.05273438-19.16015625 7.20703125-6.85546875 17.13867188-10.72265625 28.91601562-10.72265625 0.79101563 0 1.58203125 0 2.37304688 0.08789063h337.67578124v197.9296875c0 19.77539063 16.171875 36.03515625 36.03515626 36.03515625h233.96484374v454.21875c-0.08789063 16.5234375-19.24804688 31.640625-40.42968749 31.640625z" p-id="3236"></path></svg>