<svg t="1673591854681" class="icon" viewBox="0 0 1024 1024" version="1.1" xmlns="http://www.w3.org/2000/svg" p-id="9941" width="200" height="200"><path d="M512 18.5c-272.111 0-493.5 221.321-493.5 493.568 0 272.111 221.389 493.5 493.5 493.5 272.179 0 493.568-221.321 493.568-493.5 0-272.247-221.457-493.568-493.568-493.568zM512 937.233c-234.496 0-425.233-190.805-425.233-425.233 0-234.564 190.737-425.301 425.233-425.301 234.564 0 425.301 190.805 425.301 425.301 0 234.496-190.805 425.233-425.301 425.233zM631.057 254.703l-78.165 143.906c-20.821 39.049-33.587 65.058-38.229 77.756h-1.365c-13.722-31.13-52.497-104.994-116.326-221.662h-73.387l136.602 234.701h-112.026v52.019h131.209v71.202h-131.209v52.77h131.209v103.97h65.263v-103.97h126.635v-52.77h-126.635v-71.202h126.635v-52.019h-108.681l137.967-234.701h-69.495z" fill="#272636" p-id="9942"></path></svg>