<svg t="1675843508922" class="icon" viewBox="0 0 1024 1024" version="1.1" xmlns="http://www.w3.org/2000/svg" p-id="3145" width="200" height="200"><path d="M948.56331026 418.34370254l-51.25730011 50.1296748-140.37750263-139.243725 51.26169463-50.13231152c15.58285223-15.58724678 40.09969687-17.82404033 53.45893828-4.4621622l92.47319649 90.24694891C966.39174512 378.23082207 964.15055703 402.74327217 948.56331026 418.34370254L948.56331026 418.34370254 948.56331026 418.34370254 948.56331026 418.34370254 948.56331026 418.34370254zM732.43890898 352.61096065l141.48491309 138.13631366L537.47835839 822.73672901c-1.11619951 1.11180498-5.59418203 5.57660479-12.26062001 6.68401522-1.10301591 0-1.10301591 0-2.23679444 1.11180499l-176.01679423 54.60589951c-4.45776768 1.11619951-10.02997793 1.11619951-13.37857734-2.23679443-3.33365799-3.33102128-4.44985753-7.79582021-2.24118898-13.37681953l55.7177045-172.68489404c0-1.09422773 0-1.09422773 1.11795732-2.22361085 1.10565263-5.58539297 5.56957354-12.25183095 7.77384844-13.37681953l64.62533057-59.04433125L246.70831661 622.19517911c-8.9225666 0-16.71838769-10.05019278-16.7183877-17.81525128 0-8.93838692 7.79582021-18.94902891 16.71838769-18.9490289l247.31471426 0L732.43890898 352.61096065 732.43890898 352.61096065zM494.02303174 811.59670303l-86.90977529-85.77160313-23.3980084 72.42115078 36.76603887 36.75988653L494.02303174 811.59670303 494.02303174 811.59670303zM727.97411006 407.20367657c-4.46040439-4.4472208-13.38121406-4.4472208-17.82404033-2e-8L446.09675293 665.66456914c-5.56781572 4.4472208-5.56781572 13.36363594 0 17.8196458 4.46216221 4.45600987 13.38297187 4.45600987 17.83019267 0l262.92129698-258.45473935C732.43890898 420.56994922 732.43890898 412.77149229 727.97411006 407.20367657L727.97411006 407.20367657 727.97411006 407.20367657 727.97411006 407.20367657 727.97411006 407.20367657zM140.85478583 911.87011426c-8.90059482 0-17.80822002-3.34859942-17.80822001-12.25183096L123.04656494 195.53528604c-1.11180498-16.71399316 10.02997793-13.36099922 22.27126201-13.36099922l61.27233662 0 0 23.39361386c0 8.91817295 10.01943105 16.71399316 20.05204571 16.71399317 8.9225666 0 20.06698711-7.79582021 20.0669871-16.71399317l0-23.39361386 91.34996573 0 0 23.39361386c0 8.91817295 10.01679434 16.71399316 20.0520457 16.71399317 8.9225666 0 20.06698711-7.79582021 20.06698711-16.71399317l0-23.39361386 83.55238682 0 0 23.39361386c0 8.91817295 10.01943105 16.71399316 20.05644024 16.71399317 8.93135567 0 20.06259258-7.79582021 20.06259257-16.71399317l0-23.39361386 83.55853917 0 0 23.39361386c0 8.91817295 10.03261465 16.71399316 20.06083476 16.71399317 8.91641513 0 20.06083477-7.79582021 20.06083477-16.71399317l0-23.39361386 70.17117362 0c8.92080967 0 14.49301904 4.44282627 14.49301904 13.36099922l0 115.86505253 51.26169464-50.12791699 0-65.73713554c0-36.76428106-27.85665498-63.49594747-65.75471368-63.49594747l-71.29176768 0L624.40922743 88.57610176c0-8.9225666-10.02822012-16.71399316-20.06522928-16.71399317-8.90762607 0-20.04765117 7.79142567-20.04765117 16.71399317l0 43.44829629-83.55853917 0L500.73780781 88.57610176c0-8.9225666-10.01943105-16.71399316-20.06962383-16.71399317-8.91817295 0-20.04325664 7.79142567-20.04325664 16.71399317l0 43.44829629-83.56117588 0L377.06375146 88.57610176c0-8.9225666-10.02997793-16.71399316-20.06259258-16.71399317-8.9225666 0-20.0520457 7.79142567-20.0520457 16.71399317l0 43.44829629L245.59211709 132.02439717 245.59211709 88.57610176c0-8.9225666-10.02822012-16.71399316-20.06259258-16.71399317-8.92080967 0-20.04940898 7.79142567-20.04940898 16.71399317l0 43.44829629L145.31694805 132.02439717c-50.12967481 0-74.63773037 26.72902969-74.63773038 63.49594746l0 702.96855644c0 36.74670293 33.41304492 63.50034201 71.30670909 63.500342l552.57689619 0c37.87608604 0 65.73274102-26.75363906 65.73274101-63.500342L760.29556396 655.6187709l-51.25290557 50.12791699 0 193.83116748c0 8.92959786-5.57221026 12.26501367-14.47983544 12.26501366M578.68019229 322.5438793L245.59211709 322.5438793c-8.92080967 0-15.58724678 11.12859932-15.58724678 18.9226626 0 8.91817295 6.68401523 18.94024071 15.58724678 18.94024072l333.0880752 0c8.93399239 0 15.60043037-11.14617744 15.60043037-18.94024072C594.28062266 333.67335751 587.60100195 322.5438793 578.68019229 322.5438793L578.68019229 322.5438793 578.68019229 322.5438793 578.68019229 322.5438793 578.68019229 322.5438793zM578.68019229 450.65021503L245.59211709 450.65021503c-8.92080967 0-15.58724678 11.12859932-15.58724678 18.9358462 0 8.92080967 6.68401523 18.9226626 15.58724678 18.9226626l333.0880752 0c8.93399239 0 15.60043037-11.14178291 15.60043037-18.9226626C594.28062266 461.77881435 587.60100195 450.65021503 578.68019229 450.65021503L578.68019229 450.65021503 578.68019229 450.65021503 578.68019229 450.65021503 578.68019229 450.65021503z"  p-id="3146"></path></svg>