<svg t="1677572028246" class="icon" viewBox="0 0 1024 1024" version="1.1" xmlns="http://www.w3.org/2000/svg" p-id="3364" width="200" height="200"><path d="M512.34133333 75.32088889c59.05066667 0 116.28088889 11.49155555 170.09777778 34.36088889 51.99644445 21.95911111 98.75911111 53.47555555 138.92266667 93.63911111s71.68 86.92622222 93.63911111 138.92266666c22.75555555 53.81688889 34.36088889 111.04711111 34.36088889 170.09777778s-11.49155555 116.28088889-34.36088889 170.09777778c-21.95911111 51.99644445-53.47555555 98.75911111-93.63911111 138.92266667s-86.92622222 71.68-138.92266667 93.63911111c-53.81688889 22.75555555-111.04711111 34.36088889-170.09777778 34.36088889s-116.28088889-11.49155555-170.09777778-34.36088889c-51.99644445-21.95911111-98.75911111-53.47555555-138.92266666-93.63911111s-71.68-86.92622222-93.63911111-138.92266667c-22.75555555-53.81688889-34.36088889-111.04711111-34.36088889-170.09777778s11.49155555-116.28088889 34.36088889-170.09777778c21.95911111-51.99644445 53.47555555-98.75911111 93.63911111-138.92266666s86.92622222-71.68 138.92266666-93.63911111c53.81688889-22.75555555 111.04711111-34.36088889 170.09777778-34.36088889m0-72.81777778c-281.6 0-509.83822222 228.23822222-509.83822222 509.83822222s228.23822222 509.83822222 509.83822222 509.83822222 509.83822222-228.23822222 509.83822222-509.83822222S793.82755555 2.50311111 512.34133333 2.50311111z" fill="#1890FF" p-id="3365"></path><path d="M512 70.95081086c-244.14991803 0-442.08481975 197.93490173-442.08481975 442.08481975S267.85008197 955.12045037 512 955.12045037s442.08481975-197.93490173 442.08481975-442.08481976S756.14991803 70.95081086 512 70.95081086z m184.98951902 626.55652345c-15.79336691 24.59622717-39.22450963 44.01430124-68.86943605 57.6069531-16.6995437 7.63777581-34.56417185 13.07483653-53.72333828 16.31118222v66.66872098h-105.50486914v-66.92762864c-21.8776968-3.3657995-41.55467852-8.67340642-59.03094518-16.18172839-31.71618765-13.8515595-57.08913778-34.8230795-75.21267357-62.39674469-18.12353581-27.57366518-27.83257283-59.28985283-28.86820347-94.11293236l-0.12945383-4.14252245 71.97632791-6.34323755 0.51781531 4.14252249c2.84798419 24.72568098 9.70903703 45.3088395 20.45370469 60.97275259 10.61521383 15.66391309 27.05584987 28.47984197 49.58081579 38.188879 22.52496592 9.83849086 48.41573136 14.88719013 76.76611952 14.88719014 25.2434963 0 47.50955457-3.75416098 66.79817481-11.26248297 18.90025876-7.37886815 33.01072592-17.34681283 42.07249383-30.03328791 9.0617679-12.55702124 13.59265185-26.40858075 13.59265184-41.29577085 0-15.01664395-4.40143013-28.35038815-13.07483653-39.35396347-8.67340642-11.26248297-23.69005037-20.97152-44.14375506-28.86820345-13.46319803-5.30760691-44.01430124-13.59265185-90.48822519-24.72568099-46.99173925-11.26248297-80.64973431-22.13660445-99.54999309-32.23400296-24.85513482-13.07483653-43.75539358-29.64492642-56.31241481-49.0630005-12.29811358-19.5475279-18.64135111-41.81358617-18.64135111-65.76254418 0-26.53803457 7.63777581-51.65207703 22.65441976-74.69485829s37.28270222-40.77795555 66.15090566-52.68770765c17.08790518-6.99050667 35.47034864-11.9097521 54.88842272-14.88719012v-61.49056791h105.50486914v65.63309037c13.07483653 2.84798419 25.37295013 6.86105283 36.76488692 11.78029828 29.64492642 12.42756741 52.68770765 31.19837235 68.73998222 55.40623802 16.05227457 24.20786569 24.59622717 52.04043852 25.7613116 82.72099556l0.12945382 4.14252246-73.14141234 5.43706075-0.5178153-4.14252247c-3.3657995-31.06891852-14.62828247-54.50006124-33.91690272-70.42288197-19.28862025-15.66391309-48.28627753-23.69005037-86.21624889-23.69005037-39.74232494 0-68.86943605 7.37886815-86.73406419 21.4893353-17.86462815 14.36937482-26.40858075 30.81001086-26.40858075 51.0048079 0 17.21735902 5.95487605 31.06891852 18.38244346 42.07249384 12.42756741 11.26248297 46.08556247 23.17223506 100.06780839 35.47034864 54.88842272 12.42756741 93.20675555 23.56059653 113.91936791 32.88127209 30.29219555 13.98101333 53.20552297 32.10454914 67.7043516 53.46443062 14.62828247 21.61878914 22.00715061 46.86228543 22.00715061 74.95376593 0.12945383 28.22093431-7.89668347 54.75896889-23.94895801 79.48464986z"  p-id="3366"></path></svg>