<svg t="1678063622499" class="icon" viewBox="0 0 1024 1024" version="1.1" xmlns="http://www.w3.org/2000/svg" p-id="3416" width="200" height="200"><path d="M364.79963136 303.31777403l318.15522077 0c21.45645682 0 42.11473522-9.08150101 55.88684458-25.54831757 32.83334827-39.02093881 63.9705088-86.92394894 70.9562789-129.83686259 14.07136995-85.92588459-22.75400931-129.53760313-129.53760313-129.53760312s-70.65679189 70.0580443-112.17277838 75.84631808c-30.93727573 4.29129159-29.83960917-36.52589113-78.44096797-75.74648946-34.92930674-28.04313771-74.04984775 51.19623623-120.15661397 51.6951552-53.79088611 0.69857735-129.43777337-14.17119858-129.43777337 77.74239061 0 37.12486627 32.53408768 87.32303815 68.06214201 128.93862798C322.38563669 293.53746811 342.94385778 303.31777403 364.79963136 303.31777403zM761.69530823 385.15179785c-16.96550685-19.26089614-41.61558869-30.03926755-67.26373604-30.03926755L354.91972437 355.1125303c-24.55025323 0-48.20226958 9.87990813-65.16800398 27.6440485C183.06772765 494.53026911 84.66728619 654.1069111 84.66728619 770.47115246c0 102.59213198 103.09104981 232.12973397 230.23343388 232.12973397l394.20119723 0c127.14238407 0 230.23343389-128.43970901 230.23343388-232.12973397C939.33557874 652.01118019 860.19580701 496.92548703 761.69530823 385.15179785zM658.00551083 526.36577944l-68.26157284 123.84915683c-5.9879333 10.87797248 1.89607253 24.25076509 14.27102834 24.25076509l19.3607259 0c8.98189995 0 16.36675925 7.28525824 16.36675926 16.36675926l0 0c0 8.98189995-7.28525824 16.36675925-16.36675926 16.36675925l-48.7014161 0c-9.48081778 0-17.06533661 7.58474525-17.16516523 17.0653366l0 8.08366421c0 8.98189995 7.28525824 16.36675925 16.36675925 16.36675925l49.49959452 0c8.98189995 0 16.36675925 7.28525824 16.36675926 16.36675926s-7.28525824 16.36675925-16.36675926 16.36675925l-49.49959452 0c-8.98189995 0-16.36675925 7.28525824-16.36675925 16.36675925l0 41.6155887c0 8.98189995-7.28525824 16.36675925-16.36675925 16.36675925l-29.6399508 0c-8.98189995 0-16.36675925-7.28525824-16.36675925-16.36675925l0-41.6155887c0-8.98189995-7.28525824-16.36675925-16.36675925-16.36675925l-49.0006767 0c-8.98189995 0-16.36675925-7.28525824-16.36675925-16.36675925s7.28525824-16.36675925 16.36675925-16.36675926l48.90084694 0c9.08172857 0 16.36698681-7.28525824 16.46658901-16.36675925l0.09982976-7.98383445c0.09982976-9.48081778-7.58474525-17.26499499-17.16516523-17.26499499l-48.30209934 0c-8.98189995 0-16.36675925-7.28525824-16.36675925-16.36675925l0 0c0-8.98189995 7.28525824-16.36675925 16.36675925-16.36675926l18.86180694 0c12.47478443 0 20.25896163-13.37279261 14.27102833-24.25076507l-68.26180039-123.84893043c-5.9879333-10.87797248 1.89607253-24.25099264 14.27102834-24.25099264l32.53408768 0c6.18736413 0 11.87603683 3.49288562 14.57051534 8.98189995l55.58735758 110.87522702c5.9879333 11.97563904 23.15309853 11.97563904 29.24086045 0l55.58735758-110.87522702c2.79430827-5.48878677 8.3829248-8.98189995 14.57051534-8.98189995l32.53408768 0C656.10921074 502.21461656 663.99344299 515.48780696 658.00551083 526.36577944z"  p-id="3417"></path></svg>