<svg t="1675764651286" class="icon" viewBox="0 0 1028 1024" version="1.1" xmlns="http://www.w3.org/2000/svg" p-id="27170" width="200" height="200"><path d="M13.759999 390.960049L423.047967 32.248077A144.559989 144.559989 0 0 1 514.16796 0.00008c34.231997 0 65.631995 11.935999 90.503993 31.775998l409.143968 358.247972c8.927999 10.263999 14.511999 23.527998 14.511999 38.223997 0 26.775998-18.079999 49.119996-42.583997 55.991995 0 0-5.88 2.28-14.471999 2.28h-120.55999v373.775971c0 53.759996-40.431997 93.511993-94.007993 93.511992H271.631979c-53.567996 0-94.007993-39.759997-94.007993-93.511992V486.520042H59.359995c-0.392 0-0.768 0.12-1.144 0.12-0.4 0-0.768-0.112-1.159999-0.112h-1.36l-0.072-0.144C24.703998 485.000042 0 459.608044 0 428.256047c0-14.271999 5.296-27.159998 13.759999-37.295998z m664.343948 119.911991c0-21.631998-12.831999-36.903997-34.615997-36.903997l-83.887994-0.016 86.671994-86.207993a39.215997 39.215997 0 0 0 0.287999-55.479996l-0.287999-0.296a39.927997 39.927997 0 0 0-56.175996 0l-80.327994 79.751994-80.007994-79.439994a39.919997 39.919997 0 0 0-56.175995 0 39.215997 39.215997 0 0 0 0 55.767996L460.159964 474.000043l-82.759993-0.032c-21.783998 0-34.607997 15.287999-34.607998 36.895997 0 21.623998 12.831999 38.351997 34.607998 38.351997h85.527993v47.039996H377.399971c-21.791998 0-34.623997 14.007999-34.623998 35.647998 0 21.615998 12.831999 39.599997 34.623998 39.599997h85.519993v56.439995c0 27.015998 20.271998 47.023996 47.519996 47.023996 27.215998 0 47.511996-20.007998 47.511996-47.023996v-56.439995h87.975994c21.791998 0 32.167997-14.439999 32.167997-36.063998 0-28.135998-15.167999-39.191997-36.943997-39.191997H557.959956v-47.023996h85.519994c21.791998 0 34.623997-16.727999 34.623997-38.351997z" fill="#FFBA00" p-id="27171"></path></svg>