<svg t="1675764616480" class="icon" viewBox="0 0 1024 1024" version="1.1" xmlns="http://www.w3.org/2000/svg" p-id="26963" width="200" height="200"><path d="M1004.572 599.096l-405.312 363.832c-24.656 20.456-56.008 32.728-90.216 32.728-33.864 0-65-12.168-89.656-32.272L14.324 600A59.536 59.536 0 0 1 0.004 561.248c0-27.16 17.952-49.768 42.04-56.696 0 0 5.904-2.272 14.32-2.272h119.416V123.216c0-54.536 40.112-94.872 93.064-94.872h480.296c52.952 0 93.064 40.336 93.064 94.872v379.064h117.032c0.456 0 0.792-0.12 1.24-0.12 0.464 0 0.68 0.12 1.136 0.12h1.368l0.12 0.12c30.68 1.352 54.992 27.152 54.992 58.968a59.096 59.096 0 0 1-13.52 37.728zM638.58 436.04c21.256 0 33.64-16.824 33.64-38.632 0-21.704-12.504-37.272-33.64-37.272H556.884l84.424-86.92c15.12-15.56 15.12-40.68 0-56.248-15.224-15.456-39.656-15.456-54.76 0l-78.176 80.456-77.944-80.104c-15.112-15.464-39.544-15.464-54.768 0-15.112 15.56-15.112 40.792 0 56.24L460.084 360.256l-80.672-0.12c-21.248 0-33.632 15.336-33.632 37.272 0 21.816 12.504 38.632 33.632 38.632H462.804v47.496H379.508c-21.248 0-33.64 14.088-33.64 35.904 0 21.816 12.504 39.992 33.64 39.992h83.4v56.816c0 27.272 19.776 47.504 46.248 47.504 26.472 0 46.352-20.112 46.352-47.504v-56.816h85.672c21.136 0 31.248-14.536 31.248-36.36 0-28.408-14.776-39.536-35.896-39.536H555.516v-47.496h83.064z" fill="#13CE66" p-id="26964"></path></svg>