<svg t="1674019321094" class="icon" viewBox="0 0 1024 1024" version="1.1" xmlns="http://www.w3.org/2000/svg" p-id="24611" width="200" height="200"><path d="M466.048 35.477333a81.664 81.664 0 0 1 91.882667 0l417.066666 282.816c28.544 19.349333 36.266667 58.581333 17.237334 87.616a61.845333 61.845333 0 0 1-51.690667 28.138667h-56.469333v442.24c0 68.224-53.12 123.797333-119.573334 126.293333l-4.672 0.085334H264.149333c-68.608 0-124.224-56.576-124.224-126.357334V434.048H83.456c-33.066667 0-60.117333-26.304-62.016-59.477333L21.333333 370.858667c0-21.12 10.389333-40.853333 27.669334-52.565334zM512 105.6L151.872 349.802667H181.333333c21.824 0 39.722667 17.173333 41.301334 38.976l0.106666 3.136v484.394666c0 23.253333 18.56 42.112 41.408 42.112h495.68c22.869333 0 41.408-18.858667 41.408-42.112V391.893333c0-23.253333 18.56-42.112 41.429334-42.112h29.482666L512 105.578667zM405.952 384c18.133333 0 34.666667 10.346667 42.602667 26.645333l61.333333 125.824h4.224l63.594667-126.378666A47.402667 47.402667 0 0 1 620.053333 384h16.704a26.410667 26.410667 0 0 1 22.826667 39.68l-85.653333 147.2h46.101333a23.36 23.36 0 0 1 0 46.741333h-68.48v41.813334h68.48a23.36 23.36 0 0 1 0 46.72h-68.48v63.146666a41.386667 41.386667 0 0 1-82.752 0V706.133333h-68.48a23.36 23.36 0 0 1 0-46.72h68.48v-41.813333h-68.48a23.36 23.36 0 1 1 0-46.72h46.72l-82.496-145.877333A27.477333 27.477333 0 0 1 388.437333 384z"  p-id="24612"></path></svg>