<svg t="1676970179571" class="icon" viewBox="0 0 1024 1024" version="1.1" xmlns="http://www.w3.org/2000/svg" p-id="6369" width="200" height="200"><path d="M881.777778 765.155556c-76.8-5.688889-150.755556-34.133333-210.488889-85.333334-116.622222 25.6-227.555556 62.577778-338.488889 108.088889-88.177778 156.444444-170.666667 236.088889-241.777778 236.088889-14.222222 0-31.288889-2.844444-42.666666-11.377778C17.066667 998.4 0 967.111111 0 935.822222c0-25.6 5.688889-96.711111 275.911111-213.333333 62.577778-113.777778 110.933333-230.4 150.755556-352.711111-34.133333-68.266667-108.088889-236.088889-56.888889-321.422222C386.844444 17.066667 420.977778 0 457.955556 2.844444c28.444444 0 56.888889 14.222222 73.955555 36.977778 36.977778 51.2 34.133333 159.288889-14.222222 318.577778 45.511111 85.333333 105.244444 162.133333 176.355555 227.555556 59.733333-11.377778 119.466667-19.911111 179.2-19.911112 133.688889 2.844444 153.6 65.422222 150.755556 102.4 0 96.711111-93.866667 96.711111-142.222222 96.711112zM85.333333 941.511111l8.533334-2.844444c39.822222-14.222222 71.111111-42.666667 93.866666-79.644445-42.666667 17.066667-76.8 45.511111-102.4 82.488889z m378.311111-853.333333H455.111111c-2.844444 0-8.533333 0-11.377778 2.844444-11.377778 48.355556-2.844444 99.555556 17.066667 145.066667 17.066667-48.355556 17.066667-99.555556 2.844444-147.911111z m19.911112 412.444444l-2.844445 5.688889-2.844444-2.844444c-25.6 65.422222-54.044444 130.844444-85.333334 193.422222l5.688889-2.844445v5.688889c62.577778-22.755556 130.844444-42.666667 193.422222-56.888889l-2.844444-2.844444h8.533333c-42.666667-42.666667-82.488889-91.022222-113.777777-139.377778z m386.844444 150.755556c-25.6 0-48.355556 0-73.955556 5.688889 28.444444 14.222222 56.888889 19.911111 85.333334 22.755555 19.911111 2.844444 39.822222 0 56.888889-5.688889 0-8.533333-11.377778-22.755556-68.266667-22.755555z"  p-id="6370"></path></svg>