<svg t="1679624602612" class="icon" viewBox="0 0 1024 1024" version="1.1" xmlns="http://www.w3.org/2000/svg" p-id="3719" width="200" height="200"><path d="M723.25207551 721.82985329h162.70689226v-162.70689034h162.70689033v244.06033644h-162.70689033v81.35344615h-162.70689226v-81.35344615h-162.70689034v-244.06033644h162.70689034v162.70689034z m-732.18100936-162.70689034h488.12067291v488.12067293H-8.92893385v-488.12067293z m162.70689222 162.70689034v162.70689225h162.70689038v-162.70689225H153.77795837zM-8.92893385-10.35115607h488.12067291v488.12067291H-8.92893385V-10.35115607z m162.70689222 162.70689222v162.70689037h162.70689038V152.35573615H153.77795837z m406.7672268-162.70689222h488.12067293v488.12067291h-488.12067293V-10.35115607z m162.70689034 162.70689222v162.70689037h162.70689226V152.35573615h-162.70689226z m162.70689226 732.18100939h162.70689033v162.70689034h-162.70689033v-162.70689034z m-325.4137826 0h162.70689034v162.70689034h-162.70689034v-162.70689034z"  p-id="3720"></path></svg>