<svg t="1674018383267" class="icon" viewBox="0 0 1024 1024" version="1.1" xmlns="http://www.w3.org/2000/svg" p-id="22860" width="200" height="200"><path d="M524.204191 36.644793c4.959783 1.366869 10.19587 2.130364 14.824676 4.231437 9.727229 4.414012 19.1928 9.41773 28.653488 14.397041 9.050628 4.767445 17.932351 9.858058 26.935139 14.720207 29.141656 15.74536 58.307721 31.444831 87.456212 47.175546a114456.520661 114456.520661 0 0 1 84.893331 45.856517c27.724017 14.993581 55.43339 30.020358 83.158384 45.020774 28.429908 15.382163 56.865674 30.753586 85.299487 46.125009 15.339204 8.291039 30.844385 16.288202 45.963914 24.957083 10.273976 5.890231 15.651631 15.899621 19.12055 26.826765 5.859965 18.458595 6.474079 37.098789-1.314147 55.063359-3.771583 8.700124-10.149982 15.633081-19.610671 19.546233-12.992094 5.372773-25.580961 11.717-38.38267 17.556462-25.006876 11.411407-50.057688 22.723228-75.059682 34.148304-13.088751 5.98103-26.082798 12.17002-39.167644 18.160813-26.448924 12.107534-52.930066 24.147701-79.399493 36.212276-28.941508 13.188337-57.89766 26.343479-86.821593 39.567941-17.450041 7.978612-34.781945 16.212048-52.293496 24.055926-23.462314 10.507321-46.663946 21.757632-70.690582 30.794592-21.042955 7.912221-42.595557 5.869728-63.217711-3.621228-24.252169-11.161465-48.536557-22.249705-72.811182-33.361377-21.946065-10.043561-43.891154-20.083217-65.843077-30.114086-27.187033-12.420938-54.381877-24.824302-81.567934-37.24524-21.950947-10.030869-43.891154-20.087123-65.841124-30.117015-27.188986-12.421914-54.383829-24.823325-81.572815-37.24231-21.221624-9.693057-42.455941-19.358777-63.649252-29.114319-14.237898-6.554139-20.650468-18.300429-20.645586-33.435579 0.005858-11.130223 0.070296-22.468404 2.095215-33.343804 2.794272-15.01799 10.89102-27.623455 24.336134-35.44683 16.587937-9.652051 33.723598-18.362915 50.635679-27.455525 26.641262-14.323815 53.297168-28.619317 79.938429-42.942156a40428.164772 40428.164772 0 0 0 52.414561-28.240499c28.165321-15.194706 56.297447-30.447017 84.489129-45.587048 28.199493-15.146866 56.4644-30.169737 84.68342-45.278526 16.502996-8.837787 32.934719-17.805427 49.474815-26.579753 11.155607-5.918545 22.184291-12.184665 33.750936-17.175691 7.800919-3.365428 16.448321-4.764516 24.704212-7.087218 0.518434-0.14645 0.929471-0.6766 1.391278-1.029057l13.66967 0.000976zM92.637623 330.510006c16.925749 7.332278 32.847825 14.230087 48.766973 21.129848 14.502485 6.283694 28.988372 12.60156 43.509406 18.842295 17.593562 7.559764 35.230083 15.01799 52.821693 22.58166 17.30652 7.440651 34.558365 15.006274 51.870743 22.43228 19.649724 8.428703 39.358029 16.723648 59.007753 25.150398 15.259145 6.542423 30.447017 13.252776 45.706161 19.78934 19.362682 8.292016 38.79566 16.415126 58.144673 24.73936 17.597468 7.572457 35.097302 15.375328 52.707462 22.920448 2.766934 1.185271 5.653958 2.844065 9.005717 0.994886 2.786461-1.537728 5.812124-2.639034 8.739177-3.918034 17.554509-7.672043 35.09242-15.389973 52.676219-22.996602 20.504994-8.872935 41.053923-17.644332 61.577468-26.466497 16.573292-7.122366 33.137797-14.258401 49.711089-21.379791 20.525497-8.822166 41.055876-17.632616 61.581373-26.454781 16.573292-7.122366 33.137797-14.258401 49.711089-21.380767 20.525497-8.82119 41.04416-17.661906 61.587231-26.443066 15.553021-6.64982 31.15486-13.180527 46.700071-19.843039 7.090147-3.037379 14.096329-6.265144 21.831834-9.714536-1.802315-1.225301-2.890929-2.113766-4.10549-2.766934-8.735272-4.692268-17.556462-9.229298-26.242917-14.011388-25.080101-13.807334-50.077214-27.760142-75.166103-41.545997-15.277695-8.395507-30.71258-16.505925-45.996133-24.890692-25.661021-14.076803-51.243935-28.294197-76.886405-42.406148a31771.744521 31771.744521 0 0 0-71.52242-39.224271c-24.13208-13.20103-48.298331-26.338598-72.428458-39.543533-10.383326-5.680319-20.933605-11.099956-31.00841-17.290898-13.23813-8.134826-13.067272-8.4082-26.433302-0.97243-0.700032 0.387605-1.448882 0.683435-2.152819 1.066158-15.611602 8.459945-31.256399 16.862287-46.824065 25.405221-25.518476 14.000648-50.978372 28.105765-76.476345 42.141561a36229.763796 36229.763796 0 0 1-69.386198 38.112225c-11.78632 6.453576-23.659534 12.748986-35.437067 19.220137-25.79185 14.172483-51.519262 28.459198-77.323803 42.606297-24.68078 13.528102-49.447478 26.906825-74.138022 40.421258-7.819469 4.278301-15.513968 8.793852-24.128175 13.696032z" p-id="22861"></path><path d="M1009.442841 511.143754l-2.076666 13.410942c-2.502347 16.171042-5.99958 31.906638-15.451482 45.845777-6.027894 8.889533-15.348967 12.335997-24.238501 16.599653-8.487283 4.073271-17.232318 7.606628-25.808447 11.504159a53058.528464 53058.528464 0 0 0-89.432315 40.758094c-12.505879 5.711562-24.962941 11.523686-37.461009 17.247939a80902.224138 80902.224138 0 0 1-78.919136 36.088282c-29.656185 13.540794-59.332873 27.039606-88.982224 40.597975-16.862287 7.711096-33.58984 15.727786-50.557571 23.205538-19.564783 8.617135-39.133472 17.280159-59.052665 25.022498-21.081032 8.194382-42.130821 6.188013-62.541111-3.102794-19.639961-8.939326-39.186194-18.086612-58.809557-27.063039-26.595374-12.164162-53.238588-24.223855-79.837868-36.378253-22.532843-10.293503-45.018821-20.689522-67.550687-30.984978-30.816071-14.082661-61.662409-28.094049-92.482386-42.170851-18.751496-8.563437-37.455152-17.232318-56.215435-25.775252-24.86726-11.323537-49.790172-22.522103-74.645716-33.868095-11.646704-5.314193-17.519361-15.551069-21.890414-26.811144-4.477474-11.533449-7.265887-23.487699-7.918079-35.893992-0.023432-0.48231-0.660979-0.9324-1.01246-1.398112v-25.384718c8.33888 4.376911 16.652375 8.807521 25.022498 13.12097 14.787575 7.62225 29.509735 15.371423 44.443759 22.691986 13.20103 6.472127 26.683244 12.374074 39.991671 18.632383 30.109205 14.156862 60.18619 28.38402 90.279774 42.573101 15.47882 7.300059 30.960569 14.582544 46.442318 21.867958 28.797986 13.554463 57.600854 27.099163 86.393959 40.664366 16.20619 7.632989 32.385042 15.32163 48.593184 22.947785 28.655441 13.482214 57.323575 26.937091 85.987804 40.395873 8.68255 4.075224 17.34362 8.197311 26.094514 12.120227 1.380538 0.619973 3.465014 0.89237 4.753776 0.301687 16.141752-7.384024 32.213207-14.91938 48.269042-22.487931 29.662043-13.983074 59.298701-28.017894 88.950981-42.020495a40069.503114 40069.503114 0 0 1 48.174337-22.697843c28.219996-13.282066 56.447802-26.544604 84.662916-39.835457 16.349711-7.702309 32.669156-15.469057 49.024725-23.163556 28.509967-13.410942 57.167361-26.51922 85.51721-40.264068 25.941229-12.578128 51.528049-25.885578 77.344307-38.727316 4.805522-2.390069 9.949833-4.099632 14.938906-6.122599-0.001953 6.186061-0.001953 12.370168-0.001952 18.5533z" p-id="22862"></path><path d="M14.557159 692.742122c20.461059 10.933979 40.632147 22.46157 61.45445 32.661345 29.58296 14.490769 59.653111 27.985675 89.498705 41.940436 15.504205 7.250266 30.973261 14.574734 46.458916 21.863076 28.803844 13.560321 57.609641 27.117713 86.412509 40.679987 16.064621 7.564646 32.124361 15.137103 48.189959 22.699796 28.805797 13.560321 57.616476 27.106974 86.418367 40.672177 15.630152 7.362545 31.231014 14.784646 46.876787 22.113994 9.265422 4.341763 18.696821 8.348643 27.84606 12.924727 4.313449 2.16063 7.197544-0.742015 10.257378-2.124505 14.294525-6.4526 28.376209-13.365054 42.566267-20.056857 28.794081-13.580824 57.609641-27.117713 86.411533-40.685845 16.353616-7.706215 32.68673-15.453435 49.041323-23.151839 28.517778-13.418753 57.051178-26.801381 85.56505-40.222086 16.212048-7.631037 32.3909-15.329441 48.600996-22.959501 28.659347-13.491001 57.373368-26.871677 85.987803-40.45543 19.096142-9.063321 38.149326-18.22037 57.055083-27.677153 10.291551-5.148216 20.222833-11.015991 30.330833-16.535215 1.073969-0.585801 2.246548-0.991957 4.465757-1.956576-0.909945 10.119715-1.242875 19.454457-2.700543 28.613459-1.722255 10.837322-3.880933 21.665857-6.826537 32.228829-2.95732 10.59812-8.098701 20.548929-17.671669 26.591468-7.666185 4.841647-16.296013 8.176808-24.57436 12.019664-9.999626 4.637593-20.092981 9.069179-30.119944 13.648191-31.112877 14.212513-62.225755 28.418192-93.310318 42.692215-13.658931 6.271978-27.221205 12.753868-40.876231 19.034633-27.735733 12.754844-55.506615 25.440369-83.258946 38.155184-30.952758 14.177365-61.91528 28.334227-92.849488 42.552598-18.161789 8.346691-36.052158 17.326046-54.486344 25.006876-12.88665 5.369844-26.225343 10.295456-39.841315 13.10242-15.089262 3.112557-30.243939 0.099586-44.417399-6.248546-16.193497-7.252219-32.25519-14.79148-48.408657-22.135474-27.927095-12.696264-55.896173-25.304659-83.81741-38.016544-15.857638-7.22-31.639122-14.605-47.484068-21.851361-26.745729-12.2286-53.512938-24.40643-80.267455-36.606716-29.372071-13.394344-58.75293-26.771114-88.10938-40.195725-15.844946-7.246361-31.641075-14.599142-47.477234-21.865029a6461.576492 6461.576492 0 0 0-35.349196-16.087077c-10.726996-4.843599-16.287226-14.187128-20.616296-24.298057a126.401251 126.401251 0 0 1-9.963502-41.257977c-0.034172-0.48231-0.663908-0.926542-1.014413-1.388349 0.002929-7.803848 0.002929-15.614531 0.002929-23.425213z" p-id="22863"></path></svg>