<svg t="1675387265580" class="icon" viewBox="0 0 1024 1024" version="1.1" xmlns="http://www.w3.org/2000/svg" p-id="10704" width="200" height="200"><path d="M501.347097 50.010839c3.633548-0.627613 7.366194-0.594581 10.999742 0.033032 127.537548 21.966452 424.167226 85.652645 424.200258 202.02529 0 387.831742-327.597419 719.855484-429.749678 719.855484C402.844903 971.924645 82.580645 648.043355 82.580645 252.069161 82.580645 129.783742 403.109161 66.493935 501.347097 50.010839z m-5.912774 65.734193C307.133935 148.034065 136.968258 212.579097 136.968258 252.052645c0 365.518452 298.19871 648.357161 358.532129 654.137807 61.258323-5.978839 364.048516-289.329548 364.048516-654.137807 0-38.135742-172.857806-102.713806-364.11458-136.340645z m217.038451 234.595097a32.801032 32.801032 0 0 1 46.410323-0.264258c12.915613 12.783484 13.047742 33.527742 0.264258 46.443355L496.094968 662.362839c-0.099097 0.066065-0.198194 0.099097-0.264258 0.198193-0.099097 0.066065-0.132129 0.198194-0.198194 0.264258-2.097548 2.064516-4.657548 3.28671-7.118451 4.657549-1.222194 0.660645-2.213161 1.717677-3.484904 2.229677a32.437677 32.437677 0 0 1-24.691613-0.066064c-1.255226-0.495484-2.279226-1.569032-3.484903-2.26271-2.477419-1.403871-5.070452-2.642581-7.201032-4.756645-0.066065-0.066065-0.099097-0.198194-0.165161-0.264258l-0.264258-0.198194-129.337807-132.921806a32.834065 32.834065 0 1 1 47.104-45.78271l105.984 108.907355z" p-id="10705"></path></svg>