<svg t="1674018972633" class="icon" viewBox="0 0 1024 1024" version="1.1" xmlns="http://www.w3.org/2000/svg" p-id="3738" width="200" height="200"><path d="M936.4 481.4l-44.2 0.4a381.3 381.3 0 0 0-33.8-132.4l38.8-20.9a23.9 23.9 0 1 0-22.6-42.1l-39.1 21a384.3 384.3 0 0 0-104.2-110.6l23.2-37.7a23.9 23.9 0 0 0-40.7-25.1l-23 37.4a378.8 378.8 0 0 0-159.1-43.9l-0.4-44.3a23.9 23.9 0 1 0-47.8 0.4l0.3 44.3a379.3 379.3 0 0 0-155.2 45l-23.3-37.2a23.9 23.9 0 1 0-40.6 25.4l23.5 37.4a385.4 385.4 0 0 0-102.3 109.8l-39.1-20.8a23.7 23.7 0 0 0-32.3 9.8 24 24 0 0 0 9.8 32.4l39 20.8a378.9 378.9 0 0 0-33.8 137.9l-44.3 0.4a23.9 23.9 0 1 0 0.5 47.8l44.2-0.4a379.1 379.1 0 0 0 33.8 132.4l-38.8 20.9a23.9 23.9 0 1 0 22.6 42.1l39-21a384.7 384.7 0 0 0 104.3 110.6l-23.3 37.7a24 24 0 0 0 40.8 25.1l23-37.4a378.8 378.8 0 0 0 159.1 43.9l0.4 44.3a23.9 23.9 0 0 0 47.8-0.4l-0.4-44.3a379.7 379.7 0 0 0 155.3-45l23.3 37.2a23.9 23.9 0 1 0 40.5-25.4l-23.5-37.4a385.8 385.8 0 0 0 102.4-109.8l39 20.8a23.9 23.9 0 1 0 22.5-42.2l-39-20.8a377 377 0 0 0 33.9-137.9l44.2-0.4a23.9 23.9 0 0 0-0.4-47.8zM825 649.5A345.6 345.6 0 0 1 713.5 787a366.5 366.5 0 0 1-40.4 25.5 342.1 342.1 0 0 1-135.2 39.4c-7.9 0.6-15.8 1.3-23.9 1.4s-16-0.5-23.9-1a332.5 332.5 0 0 1-179.2-63.8 347.9 347.9 0 0 1-113.5-138 340.7 340.7 0 0 1-29.2-114.6c-0.7-8-1.4-15.9-1.5-23.9s0.6-16 1-23.9a341.9 341.9 0 0 1 29.4-119.6 362.4 362.4 0 0 1 22.5-42.2 348.4 348.4 0 0 1 89-95.3 352.2 352.2 0 0 1 40.4-25.5 341.6 341.6 0 0 1 135.2-39.4c7.9-0.6 15.8-1.3 23.9-1.4s15.9 0.5 23.9 1a343.2 343.2 0 0 1 321.9 316.4c0.6 8 1.4 15.9 1.4 23.9s-0.5 16-1 23.9A339.6 339.6 0 0 1 825 649.5z" fill="#888888" p-id="3739"></path><path d="M398.7 451.6m-114.8 0a114.8 114.8 0 1 0 229.6 0 114.8 114.8 0 1 0-229.6 0Z" fill="#888888" p-id="3740"></path><path d="M532.6 700.3m-76.5 0a76.5 76.5 0 1 0 153 0 76.5 76.5 0 1 0-153 0Z" fill="#888888" p-id="3741"></path><path d="M704.7 509m-57.4 0a57.4 57.4 0 1 0 114.8 0 57.4 57.4 0 1 0-114.8 0Z" fill="#888888" p-id="3742"></path><path d="M609.1 336.8m-19.1 0a19.1 19.1 0 1 0 38.2 0 19.1 19.1 0 1 0-38.2 0Z" fill="#888888" p-id="3743"></path><path d="M341.3 719.4m-19.1 0a19.1 19.1 0 1 0 38.2 0 19.1 19.1 0 1 0-38.2 0Z" p-id="3744"></path></svg>