<svg t="1677830981673" class="icon" viewBox="0 0 1024 1024" version="1.1" xmlns="http://www.w3.org/2000/svg" p-id="3552" width="200" height="200"><path d="M871.71946667 111.50186667c51.47733333 0 93.20746667 41.80586667 93.20746666 93.376v487.30666666c0 51.56906667-41.73013333 93.376-93.20746666 93.376l-327.68-0.00213333v65.65653333h263.60106666v64.1952H216.35946667v-64.1952h263.60106666V785.55733333l-327.68 0.00106667c-51.47733333 0-93.20746667-41.80586667-93.20746666-93.376V204.87786667c0-51.57013333 41.73013333-93.376 93.20746666-93.376h719.43893334z m0 64.19626666H152.28053333c-16.0864 0-29.12746667 13.06453333-29.12746666 29.17973334v487.30666666c0 16.1152 13.04106667 29.17866667 29.12746666 29.17866667h719.43893334c16.0864 0 29.12746667-13.06346667 29.12746666-29.17973333V204.87786667c0-16.1152-13.04106667-29.17973333-29.12746666-29.17973334zM730.45333333 338.69333333l45.312 45.39413334L654.8 505.26933333c-39.81226667 39.8848-104.35946667 39.8848-144.17066667 0l-56.24213333-56.3424c-14.7872-14.81493333-38.76266667-14.81493333-53.54986667 0l-110.04053333 110.24-45.31093333-45.39306666 110.04053333-110.24c39.81226667-39.8848 104.35946667-39.8848 144.17173333 0l56.24106667 56.3424c14.7872 14.81386667 38.76266667 14.81386667 53.54986667 0L730.45333333 338.69333333z"  p-id="3553"></path></svg>