<svg t="1674019386788" class="icon" viewBox="0 0 1024 1024" version="1.1" xmlns="http://www.w3.org/2000/svg" p-id="28102" width="200" height="200"><path d="M930.35 668.71H654.14c-16.57 0-30 13.43-30 30s13.43 30 30 30h276.21c16.57 0 30-13.43 30-30s-13.43-30-30-30zM930.35 784.39H654.14c-16.57 0-30 13.43-30 30s13.43 30 30 30h276.21c16.57 0 30-13.43 30-30 0-16.56-13.43-30-30-30zM930.35 900.08H654.14c-16.57 0-30 13.43-30 30s13.43 30 30 30h276.21c16.57 0 30-13.43 30-30s-13.43-30-30-30zM674.91 616.87c5.2 4.12 11.6 6.42 18.23 6.42h2.52c27.59 0 39.85-34.76 18.31-52-35.39-28.31-75.71-50.72-119.45-65.77 66.08-42.75 109.81-117.09 109.81-201.64 0-132.55-107.45-240-240-240s-240 107.45-240 240c0 84.42 43.6 158.66 109.5 201.44C173.97 559.79 59.5 711.78 64.49 891.14c0.4 14.36 1.56 28.54 3.43 42.48 2 14.9 14.71 26.03 29.74 26.03 18.23 0 32.12-16.11 29.7-34.18a344.13 344.13 0 0 1-3.03-45.64c0-45.93 8.98-86.45 26.69-128.33 17.12-40.48 41.64-76.85 72.89-108.09 31.24-31.24 67.61-55.77 108.09-72.89 41.33-17.48 85.25-26.44 130.54-26.67 0.6 0 1.19 0.02 1.79 0.02s1.19-0.02 1.79-0.02c45.29 0.23 89.21 9.19 130.54 26.67 28.2 11.93 54.39 27.46 78.25 46.35zM337.05 431.15c-34-34-52.72-79.2-52.72-127.28s18.72-93.28 52.72-127.28 79.2-52.72 127.28-52.72 93.28 18.72 127.28 52.72 52.72 79.2 52.72 127.28-18.72 93.28-52.72 127.28c-33.4 33.4-77.62 52.04-124.75 52.69-1.73-0.01-3.45-0.01-5.17 0-47.09-0.67-91.26-19.31-124.64-52.69z" p-id="28103"></path></svg>